<svg xmlns="http://www.w3.org/2000/svg" viewBox="0 0 960 416" role="img" aria-label="Quantidade da célula E2 da Movimentacao alterada para 50 como teste"><title>Quantidade da célula E2 da Movimentacao alterada para 50 como teste</title><defs><marker id="ponta" viewBox="0 0 10 10" refX="9" refY="5" markerWidth="7" markerHeight="7" orient="auto-start-reverse"><path d="M0,0 L10,5 L0,10 z" fill="#f47b20"/></marker></defs><rect x="0.0" y="0.0" width="960.0" height="416.0" fill="#ffffff" stroke="#9aa4b2"/><rect x="0.0" y="0.0" width="960.0" height="28.0" fill="#217346"/><text x="12.0" y="19.0" font-family="Segoe UI, Arial, sans-serif" font-size="13" font-weight="700" fill="#ffffff">Excel</text><text x="946.0" y="19.0" font-family="Segoe UI, Arial, sans-serif" font-size="13" fill="#ffffff" text-anchor="end">ESTOQUE-NOME-SOBRENOME.xlsx</text><rect x="0.0" y="28.0" width="960.0" height="26.0" fill="#f3f3f3"/><text x="19.0" y="45.0" font-family="Segoe UI, Arial, sans-serif" font-size="12" fill="#333" >Arquivo</text><rect x="79.0" y="30.0" width="116.0" height="24.0" fill="#ffffff"/><rect x="79.0" y="51.0" width="116.0" height="3.0" fill="#217346"/><text x="88.0" y="45.0" font-family="Segoe UI, Arial, sans-serif" font-size="12" fill="#333" font-weight="700">Página Inicial</text><text x="206.0" y="45.0" font-family="Segoe UI, Arial, sans-serif" font-size="12" fill="#333" >Inserir</text><text x="275.0" y="45.0" font-family="Segoe UI, Arial, sans-serif" font-size="12" fill="#333" >Layout da Página</text><text x="407.0" y="45.0" font-family="Segoe UI, Arial, sans-serif" font-size="12" fill="#333" >Fórmulas</text><text x="483.0" y="45.0" font-family="Segoe UI, Arial, sans-serif" font-size="12" fill="#333" >Dados</text><text x="538.0" y="45.0" font-family="Segoe UI, Arial, sans-serif" font-size="12" fill="#333" >Revisão</text><text x="607.0" y="45.0" font-family="Segoe UI, Arial, sans-serif" font-size="12" fill="#333" >Exibir</text><rect x="0.0" y="54.0" width="960.0" height="70.0" fill="#ffffff" stroke="#e1e1e1"/><rect x="8.0" y="60.0" width="80.0" height="58.0" rx="5" fill="#f7f7f7" stroke="#e0e0e0"/><text x="48.0" y="80.0" font-family="Segoe UI, Arial, sans-serif" font-size="16" font-weight="700" fill="#217346" text-anchor="middle">▣</text><text x="48.0" y="96.0" font-family="Segoe UI, Arial, sans-serif" font-size="10.5" fill="#333" text-anchor="middle">Colar</text><rect x="94.0" y="60.0" width="80.0" height="58.0" rx="5" fill="#f7f7f7" stroke="#e0e0e0"/><text x="134.0" y="80.0" font-family="Segoe UI, Arial, sans-serif" font-size="16" font-weight="700" fill="#217346" text-anchor="middle">✎</text><text x="134.0" y="96.0" font-family="Segoe UI, Arial, sans-serif" font-size="10.5" fill="#333" text-anchor="middle">Pincel de</text><text x="134.0" y="108.0" font-family="Segoe UI, Arial, sans-serif" font-size="10.5" fill="#333" text-anchor="middle">Formatação</text><rect x="180.0" y="60.0" width="80.0" height="58.0" rx="5" fill="#f7f7f7" stroke="#e0e0e0"/><text x="220.0" y="80.0" font-family="Segoe UI, Arial, sans-serif" font-size="16" font-weight="700" fill="#217346" text-anchor="middle">N</text><text x="220.0" y="96.0" font-family="Segoe UI, Arial, sans-serif" font-size="10.5" fill="#333" text-anchor="middle">Negrito</text><rect x="266.0" y="60.0" width="80.0" height="58.0" rx="5" fill="#f7f7f7" stroke="#e0e0e0"/><text x="306.0" y="80.0" font-family="Segoe UI, Arial, sans-serif" font-size="16" font-weight="700" fill="#217346" text-anchor="middle">A</text><text x="306.0" y="96.0" font-family="Segoe UI, Arial, sans-serif" font-size="10.5" fill="#333" text-anchor="middle">Cor da Fonte</text><rect x="352.0" y="60.0" width="80.0" height="58.0" rx="5" fill="#f7f7f7" stroke="#e0e0e0"/><text x="392.0" y="80.0" font-family="Segoe UI, Arial, sans-serif" font-size="16" font-weight="700" fill="#217346" text-anchor="middle">◧</text><text x="392.0" y="96.0" font-family="Segoe UI, Arial, sans-serif" font-size="10.5" fill="#333" text-anchor="middle">Cor de</text><text x="392.0" y="108.0" font-family="Segoe UI, Arial, sans-serif" font-size="10.5" fill="#333" text-anchor="middle">Preenchimento</text><rect x="438.0" y="60.0" width="80.0" height="58.0" rx="5" fill="#f7f7f7" stroke="#e0e0e0"/><text x="478.0" y="80.0" font-family="Segoe UI, Arial, sans-serif" font-size="16" font-weight="700" fill="#217346" text-anchor="middle">▦</text><text x="478.0" y="96.0" font-family="Segoe UI, Arial, sans-serif" font-size="10.5" fill="#333" text-anchor="middle">Bordas</text><rect x="524.0" y="60.0" width="80.0" height="58.0" rx="5" fill="#f7f7f7" stroke="#e0e0e0"/><text x="564.0" y="80.0" font-family="Segoe UI, Arial, sans-serif" font-size="16" font-weight="700" fill="#217346" text-anchor="middle">≡</text><text x="564.0" y="96.0" font-family="Segoe UI, Arial, sans-serif" font-size="10.5" fill="#333" text-anchor="middle">Centralizar</text><rect x="610.0" y="60.0" width="80.0" height="58.0" rx="5" fill="#f7f7f7" stroke="#e0e0e0"/><text x="650.0" y="80.0" font-family="Segoe UI, Arial, sans-serif" font-size="16" font-weight="700" fill="#217346" text-anchor="middle">R$</text><text x="650.0" y="96.0" font-family="Segoe UI, Arial, sans-serif" font-size="10.5" fill="#333" text-anchor="middle">Moeda</text><rect x="696.0" y="60.0" width="80.0" height="58.0" rx="5" fill="#f7f7f7" stroke="#e0e0e0"/><text x="736.0" y="80.0" font-family="Segoe UI, Arial, sans-serif" font-size="16" font-weight="700" fill="#217346" text-anchor="middle">%</text><text x="736.0" y="96.0" font-family="Segoe UI, Arial, sans-serif" font-size="10.5" fill="#333" text-anchor="middle">Porcentagem</text><rect x="782.0" y="60.0" width="80.0" height="58.0" rx="5" fill="#f7f7f7" stroke="#e0e0e0"/><text x="822.0" y="80.0" font-family="Segoe UI, Arial, sans-serif" font-size="16" font-weight="700" fill="#217346" text-anchor="middle">▤</text><text x="822.0" y="96.0" font-family="Segoe UI, Arial, sans-serif" font-size="10.5" fill="#333" text-anchor="middle">Formatação</text><text x="822.0" y="108.0" font-family="Segoe UI, Arial, sans-serif" font-size="10.5" fill="#333" text-anchor="middle">Condicional</text><rect x="868.0" y="60.0" width="80.0" height="58.0" rx="5" fill="#f7f7f7" stroke="#e0e0e0"/><text x="908.0" y="80.0" font-family="Segoe UI, Arial, sans-serif" font-size="16" font-weight="700" fill="#217346" text-anchor="middle">⇅</text><text x="908.0" y="96.0" font-family="Segoe UI, Arial, sans-serif" font-size="10.5" fill="#333" text-anchor="middle">Classificar e</text><text x="908.0" y="108.0" font-family="Segoe UI, Arial, sans-serif" font-size="10.5" fill="#333" text-anchor="middle">Filtrar</text><rect x="8.0" y="130.0" width="90.0" height="26.0" fill="#ffffff" stroke="#c8c8c8"/><text x="16.0" y="148.0" font-size="13" font-family="Consolas, Courier New, monospace">E2</text><text x="110.0" y="148.0" font-family="Segoe UI, Arial, sans-serif" font-size="13" font-style="italic" fill="#666">fx</text><rect x="132.0" y="130.0" width="820.0" height="26.0" fill="#ffffff" stroke="#c8c8c8"/><text x="140" y="148" font-family="Consolas, Courier New, monospace" font-size="13.5" xml:space="preserve"><tspan fill="#1f2937" font-weight="400">50</tspan></text><rect x="8.0" y="164.0" width="36.0" height="22.0" fill="#f0f0f0" stroke="#d9d9d9"/><rect x="44.0" y="164.0" width="92.0" height="22.0" fill="#f0f0f0" stroke="#d9d9d9"/><text x="90.0" y="179.0" font-family="Segoe UI, Arial, sans-serif" font-size="12" fill="#555" text-anchor="middle">A</text><rect x="136.0" y="164.0" width="78.0" height="22.0" fill="#f0f0f0" stroke="#d9d9d9"/><text x="175.0" y="179.0" font-family="Segoe UI, Arial, sans-serif" font-size="12" fill="#555" text-anchor="middle">B</text><rect x="214.0" y="164.0" width="170.0" height="22.0" fill="#f0f0f0" stroke="#d9d9d9"/><text x="299.0" y="179.0" font-family="Segoe UI, Arial, sans-serif" font-size="12" fill="#555" text-anchor="middle">C</text><rect x="384.0" y="164.0" width="72.0" height="22.0" fill="#f0f0f0" stroke="#d9d9d9"/><text x="420.0" y="179.0" font-family="Segoe UI, Arial, sans-serif" font-size="12" fill="#555" text-anchor="middle">D</text><rect x="456.0" y="164.0" width="88.0" height="22.0" fill="#f0f0f0" stroke="#d9d9d9"/><text x="500.0" y="179.0" font-family="Segoe UI, Arial, sans-serif" font-size="12" fill="#555" text-anchor="middle">E</text><rect x="544.0" y="164.0" width="108.0" height="22.0" fill="#f0f0f0" stroke="#d9d9d9"/><text x="598.0" y="179.0" font-family="Segoe UI, Arial, sans-serif" font-size="12" fill="#555" text-anchor="middle">F</text><rect x="652.0" y="164.0" width="100.0" height="22.0" fill="#f0f0f0" stroke="#d9d9d9"/><text x="702.0" y="179.0" font-family="Segoe UI, Arial, sans-serif" font-size="12" fill="#555" text-anchor="middle">G</text><rect x="752.0" y="164.0" width="104.0" height="22.0" fill="#f0f0f0" stroke="#d9d9d9"/><text x="804.0" y="179.0" font-family="Segoe UI, Arial, sans-serif" font-size="12" fill="#555" text-anchor="middle">H</text><rect x="856.0" y="164.0" width="96.0" height="22.0" fill="#f0f0f0" stroke="#d9d9d9"/><text x="904.0" y="179.0" font-family="Segoe UI, Arial, sans-serif" font-size="12" fill="#555" text-anchor="middle">I</text><rect x="8.0" y="186.0" width="36.0" height="24.0" fill="#f0f0f0" stroke="#d9d9d9"/><text x="26.0" y="202.0" font-family="Segoe UI, Arial, sans-serif" font-size="12" fill="#555" text-anchor="middle">1</text><rect x="8.0" y="210.0" width="36.0" height="24.0" fill="#f0f0f0" stroke="#d9d9d9"/><text x="26.0" y="226.0" font-family="Segoe UI, Arial, sans-serif" font-size="12" fill="#555" text-anchor="middle">2</text><rect x="8.0" y="234.0" width="36.0" height="24.0" fill="#f0f0f0" stroke="#d9d9d9"/><text x="26.0" y="250.0" font-family="Segoe UI, Arial, sans-serif" font-size="12" fill="#555" text-anchor="middle">3</text><rect x="8.0" y="258.0" width="36.0" height="24.0" fill="#f0f0f0" stroke="#d9d9d9"/><text x="26.0" y="274.0" font-family="Segoe UI, Arial, sans-serif" font-size="12" fill="#555" text-anchor="middle">4</text><rect x="8.0" y="282.0" width="36.0" height="24.0" fill="#f0f0f0" stroke="#d9d9d9"/><text x="26.0" y="298.0" font-family="Segoe UI, Arial, sans-serif" font-size="12" fill="#555" text-anchor="middle">5</text><rect x="8.0" y="306.0" width="36.0" height="24.0" fill="#f0f0f0" stroke="#d9d9d9"/><text x="26.0" y="322.0" font-family="Segoe UI, Arial, sans-serif" font-size="12" fill="#555" text-anchor="middle">6</text><rect x="8.0" y="330.0" width="36.0" height="24.0" fill="#f0f0f0" stroke="#d9d9d9"/><text x="26.0" y="346.0" font-family="Segoe UI, Arial, sans-serif" font-size="12" fill="#555" text-anchor="middle">7</text><rect x="8.0" y="354.0" width="36.0" height="24.0" fill="#f0f0f0" stroke="#d9d9d9"/><text x="26.0" y="370.0" font-family="Segoe UI, Arial, sans-serif" font-size="12" fill="#555" text-anchor="middle">8</text><rect x="44.0" y="186.0" width="92.0" height="24.0" fill="#ffffff" stroke="#d9d9d9"/><rect x="136.0" y="186.0" width="78.0" height="24.0" fill="#ffffff" stroke="#d9d9d9"/><rect x="214.0" y="186.0" width="170.0" height="24.0" fill="#ffffff" stroke="#d9d9d9"/><rect x="384.0" y="186.0" width="72.0" height="24.0" fill="#ffffff" stroke="#d9d9d9"/><rect x="456.0" y="186.0" width="88.0" height="24.0" fill="#ffffff" stroke="#d9d9d9"/><rect x="544.0" y="186.0" width="108.0" height="24.0" fill="#ffffff" stroke="#d9d9d9"/><rect x="652.0" y="186.0" width="100.0" height="24.0" fill="#ffffff" stroke="#d9d9d9"/><rect x="752.0" y="186.0" width="104.0" height="24.0" fill="#ffffff" stroke="#d9d9d9"/><rect x="856.0" y="186.0" width="96.0" height="24.0" fill="#ffffff" stroke="#d9d9d9"/><rect x="44.0" y="210.0" width="92.0" height="24.0" fill="#ffffff" stroke="#d9d9d9"/><rect x="136.0" y="210.0" width="78.0" height="24.0" fill="#ffffff" stroke="#d9d9d9"/><rect x="214.0" y="210.0" width="170.0" height="24.0" fill="#ffffff" stroke="#d9d9d9"/><rect x="384.0" y="210.0" width="72.0" height="24.0" fill="#ffffff" stroke="#d9d9d9"/><rect x="456.0" y="210.0" width="88.0" height="24.0" fill="#ffffff" stroke="#d9d9d9"/><rect x="544.0" y="210.0" width="108.0" height="24.0" fill="#ffffff" stroke="#d9d9d9"/><rect x="652.0" y="210.0" width="100.0" height="24.0" fill="#ffffff" stroke="#d9d9d9"/><rect x="752.0" y="210.0" width="104.0" height="24.0" fill="#ffffff" stroke="#d9d9d9"/><rect x="856.0" y="210.0" width="96.0" height="24.0" fill="#ffffff" stroke="#d9d9d9"/><rect x="44.0" y="234.0" width="92.0" height="24.0" fill="#ffffff" stroke="#d9d9d9"/><rect x="136.0" y="234.0" width="78.0" height="24.0" fill="#ffffff" stroke="#d9d9d9"/><rect x="214.0" y="234.0" width="170.0" height="24.0" fill="#ffffff" stroke="#d9d9d9"/><rect x="384.0" y="234.0" width="72.0" height="24.0" fill="#ffffff" stroke="#d9d9d9"/><rect x="456.0" y="234.0" width="88.0" height="24.0" fill="#ffffff" stroke="#d9d9d9"/><rect x="544.0" y="234.0" width="108.0" height="24.0" fill="#ffffff" stroke="#d9d9d9"/><rect x="652.0" y="234.0" width="100.0" height="24.0" fill="#ffffff" stroke="#d9d9d9"/><rect x="752.0" y="234.0" width="104.0" height="24.0" fill="#ffffff" stroke="#d9d9d9"/><rect x="856.0" y="234.0" width="96.0" height="24.0" fill="#ffffff" stroke="#d9d9d9"/><rect x="44.0" y="258.0" width="92.0" height="24.0" fill="#ffffff" stroke="#d9d9d9"/><rect x="136.0" y="258.0" width="78.0" height="24.0" fill="#ffffff" stroke="#d9d9d9"/><rect x="214.0" y="258.0" width="170.0" height="24.0" fill="#ffffff" stroke="#d9d9d9"/><rect x="384.0" y="258.0" width="72.0" height="24.0" fill="#ffffff" stroke="#d9d9d9"/><rect x="456.0" y="258.0" width="88.0" height="24.0" fill="#ffffff" stroke="#d9d9d9"/><rect x="544.0" y="258.0" width="108.0" height="24.0" fill="#ffffff" stroke="#d9d9d9"/><rect x="652.0" y="258.0" width="100.0" height="24.0" fill="#ffffff" stroke="#d9d9d9"/><rect x="752.0" y="258.0" width="104.0" height="24.0" fill="#ffffff" stroke="#d9d9d9"/><rect x="856.0" y="258.0" width="96.0" height="24.0" fill="#ffffff" stroke="#d9d9d9"/><rect x="44.0" y="282.0" width="92.0" height="24.0" fill="#ffffff" stroke="#d9d9d9"/><rect x="136.0" y="282.0" width="78.0" height="24.0" fill="#ffffff" stroke="#d9d9d9"/><rect x="214.0" y="282.0" width="170.0" height="24.0" fill="#ffffff" stroke="#d9d9d9"/><rect x="384.0" y="282.0" width="72.0" height="24.0" fill="#ffffff" stroke="#d9d9d9"/><rect x="456.0" y="282.0" width="88.0" height="24.0" fill="#ffffff" stroke="#d9d9d9"/><rect x="544.0" y="282.0" width="108.0" height="24.0" fill="#ffffff" stroke="#d9d9d9"/><rect x="652.0" y="282.0" width="100.0" height="24.0" fill="#ffffff" stroke="#d9d9d9"/><rect x="752.0" y="282.0" width="104.0" height="24.0" fill="#ffffff" stroke="#d9d9d9"/><rect x="856.0" y="282.0" width="96.0" height="24.0" fill="#ffffff" stroke="#d9d9d9"/><rect x="44.0" y="306.0" width="92.0" height="24.0" fill="#ffffff" stroke="#d9d9d9"/><rect x="136.0" y="306.0" width="78.0" height="24.0" fill="#ffffff" stroke="#d9d9d9"/><rect x="214.0" y="306.0" width="170.0" height="24.0" fill="#ffffff" stroke="#d9d9d9"/><rect x="384.0" y="306.0" width="72.0" height="24.0" fill="#ffffff" stroke="#d9d9d9"/><rect x="456.0" y="306.0" width="88.0" height="24.0" fill="#ffffff" stroke="#d9d9d9"/><rect x="544.0" y="306.0" width="108.0" height="24.0" fill="#ffffff" stroke="#d9d9d9"/><rect x="652.0" y="306.0" width="100.0" height="24.0" fill="#ffffff" stroke="#d9d9d9"/><rect x="752.0" y="306.0" width="104.0" height="24.0" fill="#ffffff" stroke="#d9d9d9"/><rect x="856.0" y="306.0" width="96.0" height="24.0" fill="#ffffff" stroke="#d9d9d9"/><rect x="44.0" y="330.0" width="92.0" height="24.0" fill="#ffffff" stroke="#d9d9d9"/><rect x="136.0" y="330.0" width="78.0" height="24.0" fill="#ffffff" stroke="#d9d9d9"/><rect x="214.0" y="330.0" width="170.0" height="24.0" fill="#ffffff" stroke="#d9d9d9"/><rect x="384.0" y="330.0" width="72.0" height="24.0" fill="#ffffff" stroke="#d9d9d9"/><rect x="456.0" y="330.0" width="88.0" height="24.0" fill="#ffffff" stroke="#d9d9d9"/><rect x="544.0" y="330.0" width="108.0" height="24.0" fill="#ffffff" stroke="#d9d9d9"/><rect x="652.0" y="330.0" width="100.0" height="24.0" fill="#ffffff" stroke="#d9d9d9"/><rect x="752.0" y="330.0" width="104.0" height="24.0" fill="#ffffff" stroke="#d9d9d9"/><rect x="856.0" y="330.0" width="96.0" height="24.0" fill="#ffffff" stroke="#d9d9d9"/><rect x="44.0" y="354.0" width="92.0" height="24.0" fill="#ffffff" stroke="#d9d9d9"/><rect x="136.0" y="354.0" width="78.0" height="24.0" fill="#ffffff" stroke="#d9d9d9"/><rect x="214.0" y="354.0" width="170.0" height="24.0" fill="#ffffff" stroke="#d9d9d9"/><rect x="384.0" y="354.0" width="72.0" height="24.0" fill="#ffffff" stroke="#d9d9d9"/><rect x="456.0" y="354.0" width="88.0" height="24.0" fill="#ffffff" stroke="#d9d9d9"/><rect x="544.0" y="354.0" width="108.0" height="24.0" fill="#ffffff" stroke="#d9d9d9"/><rect x="652.0" y="354.0" width="100.0" height="24.0" fill="#ffffff" stroke="#d9d9d9"/><rect x="752.0" y="354.0" width="104.0" height="24.0" fill="#ffffff" stroke="#d9d9d9"/><rect x="856.0" y="354.0" width="96.0" height="24.0" fill="#ffffff" stroke="#d9d9d9"/><rect x="44.0" y="186.0" width="92.0" height="24.0" fill="#1f3864" stroke="#ffffff"/><rect x="136.0" y="186.0" width="78.0" height="24.0" fill="#1f3864" stroke="#ffffff"/><rect x="214.0" y="186.0" width="170.0" height="24.0" fill="#1f3864" stroke="#ffffff"/><rect x="384.0" y="186.0" width="72.0" height="24.0" fill="#1f3864" stroke="#ffffff"/><rect x="456.0" y="186.0" width="88.0" height="24.0" fill="#1f3864" stroke="#ffffff"/><rect x="544.0" y="186.0" width="108.0" height="24.0" fill="#1f3864" stroke="#ffffff"/><rect x="652.0" y="186.0" width="100.0" height="24.0" fill="#1f3864" stroke="#ffffff"/><rect x="752.0" y="186.0" width="104.0" height="24.0" fill="#1f3864" stroke="#ffffff"/><rect x="456.0" y="210.0" width="88.0" height="24.0" fill="#217346" fill-opacity="0.12" stroke="#217346" stroke-width="2.5"/><text x="90.0" y="202.0" font-family="Segoe UI, Arial, sans-serif" font-size="12" font-weight="700" fill="#ffffff" text-anchor="middle">Data</text><text x="175.0" y="202.0" font-family="Segoe UI, Arial, sans-serif" font-size="12" font-weight="700" fill="#ffffff" text-anchor="middle">Código</text><text x="299.0" y="202.0" font-family="Segoe UI, Arial, sans-serif" font-size="12" font-weight="700" fill="#ffffff" text-anchor="middle">Descrição</text><text x="420.0" y="202.0" font-family="Segoe UI, Arial, sans-serif" font-size="12" font-weight="700" fill="#ffffff" text-anchor="middle">Tipo</text><text x="500.0" y="202.0" font-family="Segoe UI, Arial, sans-serif" font-size="12" font-weight="700" fill="#ffffff" text-anchor="middle">Quantidade</text><text x="598.0" y="202.0" font-family="Segoe UI, Arial, sans-serif" font-size="12" font-weight="700" fill="#ffffff" text-anchor="middle">Custo Unitário</text><text x="702.0" y="202.0" font-family="Segoe UI, Arial, sans-serif" font-size="12" font-weight="700" fill="#ffffff" text-anchor="middle">Valor</text><text x="804.0" y="202.0" font-family="Segoe UI, Arial, sans-serif" font-size="12" font-weight="700" fill="#ffffff" text-anchor="middle">Qtd com Sinal</text><text x="131.0" y="226.0" font-family="Segoe UI, Arial, sans-serif" font-size="12.5" fill="#1f2937" text-anchor="end">01/09/2026</text><text x="141.0" y="226.0" font-family="Segoe UI, Arial, sans-serif" font-size="12.5" fill="#1f2937">MAT-001</text><text x="219.0" y="226.0" font-family="Segoe UI, Arial, sans-serif" font-size="12.5" fill="#1f2937">Luva de vaqueta</text><text x="389.0" y="226.0" font-family="Segoe UI, Arial, sans-serif" font-size="12.5" fill="#1f2937">Saída</text><text x="539.0" y="226.0" font-family="Segoe UI, Arial, sans-serif" font-size="12.5" fill="#1f2937" text-anchor="end">50</text><text x="647.0" y="226.0" font-family="Segoe UI, Arial, sans-serif" font-size="12.5" fill="#1f2937" text-anchor="end">R$ 18,90</text><text x="131.0" y="250.0" font-family="Segoe UI, Arial, sans-serif" font-size="12.5" fill="#1f2937" text-anchor="end">02/09/2026</text><text x="141.0" y="250.0" font-family="Segoe UI, Arial, sans-serif" font-size="12.5" fill="#1f2937">MAT-005</text><text x="219.0" y="250.0" font-family="Segoe UI, Arial, sans-serif" font-size="12.5" fill="#1f2937">Parafuso sextavado M8</text><text x="389.0" y="250.0" font-family="Segoe UI, Arial, sans-serif" font-size="12.5" fill="#1f2937">Saída</text><text x="539.0" y="250.0" font-family="Segoe UI, Arial, sans-serif" font-size="12.5" fill="#1f2937" text-anchor="end">400</text><text x="647.0" y="250.0" font-family="Segoe UI, Arial, sans-serif" font-size="12.5" fill="#1f2937" text-anchor="end">R$ 0,45</text><text x="131.0" y="274.0" font-family="Segoe UI, Arial, sans-serif" font-size="12.5" fill="#1f2937" text-anchor="end">03/09/2026</text><text x="141.0" y="274.0" font-family="Segoe UI, Arial, sans-serif" font-size="12.5" fill="#1f2937">MAT-002</text><text x="219.0" y="274.0" font-family="Segoe UI, Arial, sans-serif" font-size="12.5" fill="#1f2937">Óculos de proteção</text><text x="389.0" y="274.0" font-family="Segoe UI, Arial, sans-serif" font-size="12.5" fill="#1f2937">Entrada</text><text x="539.0" y="274.0" font-family="Segoe UI, Arial, sans-serif" font-size="12.5" fill="#1f2937" text-anchor="end">10</text><text x="647.0" y="274.0" font-family="Segoe UI, Arial, sans-serif" font-size="12.5" fill="#1f2937" text-anchor="end">R$ 12,50</text><text x="131.0" y="298.0" font-family="Segoe UI, Arial, sans-serif" font-size="12.5" fill="#1f2937" text-anchor="end">04/09/2026</text><text x="141.0" y="298.0" font-family="Segoe UI, Arial, sans-serif" font-size="12.5" fill="#1f2937">MAT-009</text><text x="219.0" y="298.0" font-family="Segoe UI, Arial, sans-serif" font-size="12.5" fill="#1f2937">Fita isolante 19 mm</text><text x="389.0" y="298.0" font-family="Segoe UI, Arial, sans-serif" font-size="12.5" fill="#1f2937">Saída</text><text x="539.0" y="298.0" font-family="Segoe UI, Arial, sans-serif" font-size="12.5" fill="#1f2937" text-anchor="end">5</text><text x="647.0" y="298.0" font-family="Segoe UI, Arial, sans-serif" font-size="12.5" fill="#1f2937" text-anchor="end">R$ 6,90</text><text x="131.0" y="322.0" font-family="Segoe UI, Arial, sans-serif" font-size="12.5" fill="#1f2937" text-anchor="end">08/09/2026</text><text x="141.0" y="322.0" font-family="Segoe UI, Arial, sans-serif" font-size="12.5" fill="#1f2937">MAT-004</text><text x="219.0" y="322.0" font-family="Segoe UI, Arial, sans-serif" font-size="12.5" fill="#1f2937">Máscara PFF2</text><text x="389.0" y="322.0" font-family="Segoe UI, Arial, sans-serif" font-size="12.5" fill="#1f2937">Saída</text><text x="539.0" y="322.0" font-family="Segoe UI, Arial, sans-serif" font-size="12.5" fill="#1f2937" text-anchor="end">30</text><text x="647.0" y="322.0" font-family="Segoe UI, Arial, sans-serif" font-size="12.5" fill="#1f2937" text-anchor="end">R$ 3,20</text><text x="131.0" y="346.0" font-family="Segoe UI, Arial, sans-serif" font-size="12.5" fill="#1f2937" text-anchor="end">09/09/2026</text><text x="141.0" y="346.0" font-family="Segoe UI, Arial, sans-serif" font-size="12.5" fill="#1f2937">MAT-012</text><text x="219.0" y="346.0" font-family="Segoe UI, Arial, sans-serif" font-size="12.5" fill="#1f2937">Disco de corte 7&quot;</text><text x="389.0" y="346.0" font-family="Segoe UI, Arial, sans-serif" font-size="12.5" fill="#1f2937">Saída</text><text x="539.0" y="346.0" font-family="Segoe UI, Arial, sans-serif" font-size="12.5" fill="#1f2937" text-anchor="end">10</text><text x="647.0" y="346.0" font-family="Segoe UI, Arial, sans-serif" font-size="12.5" fill="#1f2937" text-anchor="end">R$ 9,80</text><text x="131.0" y="370.0" font-family="Segoe UI, Arial, sans-serif" font-size="12.5" fill="#1f2937" text-anchor="end">10/09/2026</text><text x="141.0" y="370.0" font-family="Segoe UI, Arial, sans-serif" font-size="12.5" fill="#1f2937">MAT-010</text><text x="219.0" y="370.0" font-family="Segoe UI, Arial, sans-serif" font-size="12.5" fill="#1f2937">Cabo flexível 2,5 mm²</text><text x="389.0" y="370.0" font-family="Segoe UI, Arial, sans-serif" font-size="12.5" fill="#1f2937">Entrada</text><text x="539.0" y="370.0" font-family="Segoe UI, Arial, sans-serif" font-size="12.5" fill="#1f2937" text-anchor="end">50</text><text x="647.0" y="370.0" font-family="Segoe UI, Arial, sans-serif" font-size="12.5" fill="#1f2937" text-anchor="end">R$ 3,40</text><rect x="0.0" y="382.0" width="960.0" height="30.0" fill="#f3f3f3"/><rect x="48.0" y="384.0" width="84.0" height="24.0" fill="#e9e9e9" stroke="#c8c8c8"/><text x="90.0" y="401.0" font-family="Segoe UI, Arial, sans-serif" font-size="12.5" text-anchor="middle" fill="#444">Cadastro</text><rect x="136.0" y="384.0" width="114.0" height="24.0" fill="#ffffff" stroke="#217346"/><text x="193.0" y="401.0" font-family="Segoe UI, Arial, sans-serif" font-size="12.5" text-anchor="middle" font-weight="700" fill="#217346">Movimentacao</text><rect x="254.0" y="384.0" width="84.0" height="24.0" fill="#e9e9e9" stroke="#c8c8c8"/><text x="296.0" y="401.0" font-family="Segoe UI, Arial, sans-serif" font-size="12.5" text-anchor="middle" fill="#444">Consulta</text><rect x="346.0" y="386.0" width="22.0" height="20.0" rx="11" fill="#ffffff" stroke="#999"/><text x="357.0" y="401.0" font-family="Segoe UI, Arial, sans-serif" font-size="15" text-anchor="middle" fill="#444">+</text><rect x="454.0" y="208.0" width="92.0" height="28.0" rx="4" fill="none" stroke="#f47b20" stroke-width="3"/><circle cx="500.0" cy="252.0" r="14" fill="#f47b20" stroke="#ffffff" stroke-width="2"/><text x="500.0" y="257.0" font-family="Segoe UI, Arial, sans-serif" font-size="14" font-weight="800" fill="#ffffff" text-anchor="middle">1</text><rect x="46.0" y="382.0" width="88.0" height="28.0" rx="4" fill="none" stroke="#f47b20" stroke-width="3"/><circle cx="30.0" cy="396.0" r="14" fill="#f47b20" stroke="#ffffff" stroke-width="2"/><text x="30.0" y="401.0" font-family="Segoe UI, Arial, sans-serif" font-size="14" font-weight="800" fill="#ffffff" text-anchor="middle">2</text><rect x="563.0" y="304.0" width="300.0" height="50.0" fill="#000000" fill-opacity="0.18"/><rect x="560.0" y="300.0" width="300.0" height="50.0" rx="6" fill="#fff6bf" stroke="#d4b106"/><text x="570.0" y="320.0" font-family="Segoe UI, Arial, sans-serif" font-size="12.5" fill="#3d3000">Troque para 50, olhe o Cadastro (2) e</text><text x="570.0" y="337.0" font-family="Segoe UI, Arial, sans-serif" font-size="12.5" fill="#3d3000">depois volte para 20.</text></svg>
