<svg xmlns="http://www.w3.org/2000/svg" viewBox="0 0 960 464" role="img" aria-label="Fórmula SOMASE em B16 somando o valor das saídas da Movimentacao"><title>Fórmula SOMASE em B16 somando o valor das saídas da Movimentacao</title><defs><marker id="ponta" viewBox="0 0 10 10" refX="9" refY="5" markerWidth="7" markerHeight="7" orient="auto-start-reverse"><path d="M0,0 L10,5 L0,10 z" fill="#f47b20"/></marker></defs><rect x="0.0" y="0.0" width="960.0" height="464.0" fill="#ffffff" stroke="#9aa4b2"/><rect x="0.0" y="0.0" width="960.0" height="28.0" fill="#217346"/><text x="12.0" y="19.0" font-family="Segoe UI, Arial, sans-serif" font-size="13" font-weight="700" fill="#ffffff">Excel</text><text x="946.0" y="19.0" font-family="Segoe UI, Arial, sans-serif" font-size="13" fill="#ffffff" text-anchor="end">ESTOQUE-NOME-SOBRENOME.xlsx</text><rect x="0.0" y="28.0" width="960.0" height="26.0" fill="#f3f3f3"/><text x="19.0" y="45.0" font-family="Segoe UI, Arial, sans-serif" font-size="12" fill="#333" >Arquivo</text><text x="88.0" y="45.0" font-family="Segoe UI, Arial, sans-serif" font-size="12" fill="#333" >Página Inicial</text><text x="206.0" y="45.0" font-family="Segoe UI, Arial, sans-serif" font-size="12" fill="#333" >Inserir</text><text x="275.0" y="45.0" font-family="Segoe UI, Arial, sans-serif" font-size="12" fill="#333" >Layout da Página</text><rect x="398.0" y="30.0" width="74.0" height="24.0" fill="#ffffff"/><rect x="398.0" y="51.0" width="74.0" height="3.0" fill="#217346"/><text x="407.0" y="45.0" font-family="Segoe UI, Arial, sans-serif" font-size="12" fill="#333" font-weight="700">Fórmulas</text><text x="483.0" y="45.0" font-family="Segoe UI, Arial, sans-serif" font-size="12" fill="#333" >Dados</text><text x="538.0" y="45.0" font-family="Segoe UI, Arial, sans-serif" font-size="12" fill="#333" >Revisão</text><text x="607.0" y="45.0" font-family="Segoe UI, Arial, sans-serif" font-size="12" fill="#333" >Exibir</text><rect x="0.0" y="54.0" width="960.0" height="70.0" fill="#ffffff" stroke="#e1e1e1"/><rect x="8.0" y="60.0" width="80.0" height="58.0" rx="5" fill="#f7f7f7" stroke="#e0e0e0"/><text x="48.0" y="80.0" font-family="Segoe UI, Arial, sans-serif" font-size="16" font-weight="700" fill="#217346" text-anchor="middle">fx</text><text x="48.0" y="96.0" font-family="Segoe UI, Arial, sans-serif" font-size="10.5" fill="#333" text-anchor="middle">Inserir</text><text x="48.0" y="108.0" font-family="Segoe UI, Arial, sans-serif" font-size="10.5" fill="#333" text-anchor="middle">Função</text><rect x="94.0" y="60.0" width="80.0" height="58.0" rx="5" fill="#f7f7f7" stroke="#e0e0e0"/><text x="134.0" y="80.0" font-family="Segoe UI, Arial, sans-serif" font-size="16" font-weight="700" fill="#217346" text-anchor="middle">Σ</text><text x="134.0" y="96.0" font-family="Segoe UI, Arial, sans-serif" font-size="10.5" fill="#333" text-anchor="middle">AutoSoma</text><rect x="180.0" y="60.0" width="80.0" height="58.0" rx="5" fill="#f7f7f7" stroke="#e0e0e0"/><text x="220.0" y="80.0" font-family="Segoe UI, Arial, sans-serif" font-size="16" font-weight="700" fill="#217346" text-anchor="middle">?</text><text x="220.0" y="96.0" font-family="Segoe UI, Arial, sans-serif" font-size="10.5" fill="#333" text-anchor="middle">Lógica</text><rect x="266.0" y="60.0" width="80.0" height="58.0" rx="5" fill="#f7f7f7" stroke="#e0e0e0"/><text x="306.0" y="80.0" font-family="Segoe UI, Arial, sans-serif" font-size="16" font-weight="700" fill="#217346" text-anchor="middle">⌕</text><text x="306.0" y="96.0" font-family="Segoe UI, Arial, sans-serif" font-size="10.5" fill="#333" text-anchor="middle">Pesquisa e</text><text x="306.0" y="108.0" font-family="Segoe UI, Arial, sans-serif" font-size="10.5" fill="#333" text-anchor="middle">Referência</text><rect x="8.0" y="130.0" width="90.0" height="26.0" fill="#ffffff" stroke="#c8c8c8"/><text x="16.0" y="148.0" font-size="13" font-family="Consolas, Courier New, monospace">B16</text><text x="110.0" y="148.0" font-family="Segoe UI, Arial, sans-serif" font-size="13" font-style="italic" fill="#666">fx</text><rect x="132.0" y="130.0" width="820.0" height="26.0" fill="#ffffff" stroke="#c8c8c8"/><rect x="198.4" y="134.0" width="180.2" height="19.0" rx="3" fill="#1565c0" fill-opacity="0.16"/><rect x="384.0" y="134.0" width="54.0" height="19.0" rx="3" fill="#2e7d32" fill-opacity="0.16"/><rect x="443.4" y="134.0" width="180.2" height="19.0" rx="3" fill="#c62828" fill-opacity="0.16"/><text x="140" y="148" font-family="Consolas, Courier New, monospace" font-size="13.5" xml:space="preserve"><tspan fill="#1f2937" font-weight="400">=SOMASE(</tspan><tspan fill="#1565c0" font-weight="700">Movimentacao!$D$2:$D$100</tspan><tspan fill="#1f2937" font-weight="400">;</tspan><tspan fill="#2e7d32" font-weight="700">&quot;Saída&quot;</tspan><tspan fill="#1f2937" font-weight="400">;</tspan><tspan fill="#c62828" font-weight="700">Movimentacao!$G$2:$G$100</tspan><tspan fill="#1f2937" font-weight="400">)</tspan></text><rect x="8.0" y="164.0" width="36.0" height="22.0" fill="#f0f0f0" stroke="#d9d9d9"/><rect x="44.0" y="164.0" width="200.0" height="22.0" fill="#f0f0f0" stroke="#d9d9d9"/><text x="144.0" y="179.0" font-family="Segoe UI, Arial, sans-serif" font-size="12" fill="#555" text-anchor="middle">A</text><rect x="244.0" y="164.0" width="140.0" height="22.0" fill="#f0f0f0" stroke="#d9d9d9"/><text x="314.0" y="179.0" font-family="Segoe UI, Arial, sans-serif" font-size="12" fill="#555" text-anchor="middle">B</text><rect x="384.0" y="164.0" width="110.0" height="22.0" fill="#f0f0f0" stroke="#d9d9d9"/><text x="439.0" y="179.0" font-family="Segoe UI, Arial, sans-serif" font-size="12" fill="#555" text-anchor="middle">C</text><rect x="494.0" y="164.0" width="96.0" height="22.0" fill="#f0f0f0" stroke="#d9d9d9"/><text x="542.0" y="179.0" font-family="Segoe UI, Arial, sans-serif" font-size="12" fill="#555" text-anchor="middle">D</text><rect x="590.0" y="164.0" width="96.0" height="22.0" fill="#f0f0f0" stroke="#d9d9d9"/><text x="638.0" y="179.0" font-family="Segoe UI, Arial, sans-serif" font-size="12" fill="#555" text-anchor="middle">E</text><rect x="686.0" y="164.0" width="96.0" height="22.0" fill="#f0f0f0" stroke="#d9d9d9"/><text x="734.0" y="179.0" font-family="Segoe UI, Arial, sans-serif" font-size="12" fill="#555" text-anchor="middle">F</text><rect x="782.0" y="164.0" width="96.0" height="22.0" fill="#f0f0f0" stroke="#d9d9d9"/><text x="830.0" y="179.0" font-family="Segoe UI, Arial, sans-serif" font-size="12" fill="#555" text-anchor="middle">G</text><rect x="878.0" y="164.0" width="74.0" height="22.0" fill="#f0f0f0" stroke="#d9d9d9"/><text x="915.0" y="179.0" font-family="Segoe UI, Arial, sans-serif" font-size="12" fill="#555" text-anchor="middle">H</text><rect x="8.0" y="186.0" width="36.0" height="24.0" fill="#f0f0f0" stroke="#d9d9d9"/><text x="26.0" y="202.0" font-family="Segoe UI, Arial, sans-serif" font-size="12" fill="#555" text-anchor="middle">1</text><rect x="8.0" y="210.0" width="36.0" height="24.0" fill="#f0f0f0" stroke="#d9d9d9"/><text x="26.0" y="226.0" font-family="Segoe UI, Arial, sans-serif" font-size="12" fill="#555" text-anchor="middle">8</text><rect x="8.0" y="234.0" width="36.0" height="24.0" fill="#f0f0f0" stroke="#d9d9d9"/><text x="26.0" y="250.0" font-family="Segoe UI, Arial, sans-serif" font-size="12" fill="#555" text-anchor="middle">9</text><rect x="8.0" y="258.0" width="36.0" height="24.0" fill="#f0f0f0" stroke="#d9d9d9"/><text x="26.0" y="274.0" font-family="Segoe UI, Arial, sans-serif" font-size="12" fill="#555" text-anchor="middle">10</text><rect x="8.0" y="282.0" width="36.0" height="24.0" fill="#f0f0f0" stroke="#d9d9d9"/><text x="26.0" y="298.0" font-family="Segoe UI, Arial, sans-serif" font-size="12" fill="#555" text-anchor="middle">11</text><rect x="8.0" y="306.0" width="36.0" height="24.0" fill="#f0f0f0" stroke="#d9d9d9"/><text x="26.0" y="322.0" font-family="Segoe UI, Arial, sans-serif" font-size="12" fill="#555" text-anchor="middle">12</text><rect x="8.0" y="330.0" width="36.0" height="24.0" fill="#f0f0f0" stroke="#d9d9d9"/><text x="26.0" y="346.0" font-family="Segoe UI, Arial, sans-serif" font-size="12" fill="#555" text-anchor="middle">13</text><rect x="8.0" y="354.0" width="36.0" height="24.0" fill="#f0f0f0" stroke="#d9d9d9"/><text x="26.0" y="370.0" font-family="Segoe UI, Arial, sans-serif" font-size="12" fill="#555" text-anchor="middle">14</text><rect x="8.0" y="378.0" width="36.0" height="24.0" fill="#f0f0f0" stroke="#d9d9d9"/><text x="26.0" y="394.0" font-family="Segoe UI, Arial, sans-serif" font-size="12" fill="#555" text-anchor="middle">15</text><rect x="8.0" y="402.0" width="36.0" height="24.0" fill="#f0f0f0" stroke="#d9d9d9"/><text x="26.0" y="418.0" font-family="Segoe UI, Arial, sans-serif" font-size="12" fill="#555" text-anchor="middle">16</text><rect x="44.0" y="186.0" width="200.0" height="24.0" fill="#ffffff" stroke="#d9d9d9"/><rect x="244.0" y="186.0" width="140.0" height="24.0" fill="#ffffff" stroke="#d9d9d9"/><rect x="384.0" y="186.0" width="110.0" height="24.0" fill="#ffffff" stroke="#d9d9d9"/><rect x="494.0" y="186.0" width="96.0" height="24.0" fill="#ffffff" stroke="#d9d9d9"/><rect x="590.0" y="186.0" width="96.0" height="24.0" fill="#ffffff" stroke="#d9d9d9"/><rect x="686.0" y="186.0" width="96.0" height="24.0" fill="#ffffff" stroke="#d9d9d9"/><rect x="782.0" y="186.0" width="96.0" height="24.0" fill="#ffffff" stroke="#d9d9d9"/><rect x="878.0" y="186.0" width="74.0" height="24.0" fill="#ffffff" stroke="#d9d9d9"/><rect x="44.0" y="210.0" width="200.0" height="24.0" fill="#ffffff" stroke="#d9d9d9"/><rect x="244.0" y="210.0" width="140.0" height="24.0" fill="#ffffff" stroke="#d9d9d9"/><rect x="384.0" y="210.0" width="110.0" height="24.0" fill="#ffffff" stroke="#d9d9d9"/><rect x="494.0" y="210.0" width="96.0" height="24.0" fill="#ffffff" stroke="#d9d9d9"/><rect x="590.0" y="210.0" width="96.0" height="24.0" fill="#ffffff" stroke="#d9d9d9"/><rect x="686.0" y="210.0" width="96.0" height="24.0" fill="#ffffff" stroke="#d9d9d9"/><rect x="782.0" y="210.0" width="96.0" height="24.0" fill="#ffffff" stroke="#d9d9d9"/><rect x="878.0" y="210.0" width="74.0" height="24.0" fill="#ffffff" stroke="#d9d9d9"/><rect x="44.0" y="234.0" width="200.0" height="24.0" fill="#ffffff" stroke="#d9d9d9"/><rect x="244.0" y="234.0" width="140.0" height="24.0" fill="#ffffff" stroke="#d9d9d9"/><rect x="384.0" y="234.0" width="110.0" height="24.0" fill="#ffffff" stroke="#d9d9d9"/><rect x="494.0" y="234.0" width="96.0" height="24.0" fill="#ffffff" stroke="#d9d9d9"/><rect x="590.0" y="234.0" width="96.0" height="24.0" fill="#ffffff" stroke="#d9d9d9"/><rect x="686.0" y="234.0" width="96.0" height="24.0" fill="#ffffff" stroke="#d9d9d9"/><rect x="782.0" y="234.0" width="96.0" height="24.0" fill="#ffffff" stroke="#d9d9d9"/><rect x="878.0" y="234.0" width="74.0" height="24.0" fill="#ffffff" stroke="#d9d9d9"/><rect x="44.0" y="258.0" width="200.0" height="24.0" fill="#ffffff" stroke="#d9d9d9"/><rect x="244.0" y="258.0" width="140.0" height="24.0" fill="#ffffff" stroke="#d9d9d9"/><rect x="384.0" y="258.0" width="110.0" height="24.0" fill="#ffffff" stroke="#d9d9d9"/><rect x="494.0" y="258.0" width="96.0" height="24.0" fill="#ffffff" stroke="#d9d9d9"/><rect x="590.0" y="258.0" width="96.0" height="24.0" fill="#ffffff" stroke="#d9d9d9"/><rect x="686.0" y="258.0" width="96.0" height="24.0" fill="#ffffff" stroke="#d9d9d9"/><rect x="782.0" y="258.0" width="96.0" height="24.0" fill="#ffffff" stroke="#d9d9d9"/><rect x="878.0" y="258.0" width="74.0" height="24.0" fill="#ffffff" stroke="#d9d9d9"/><rect x="44.0" y="282.0" width="200.0" height="24.0" fill="#ffffff" stroke="#d9d9d9"/><rect x="244.0" y="282.0" width="140.0" height="24.0" fill="#ffffff" stroke="#d9d9d9"/><rect x="384.0" y="282.0" width="110.0" height="24.0" fill="#ffffff" stroke="#d9d9d9"/><rect x="494.0" y="282.0" width="96.0" height="24.0" fill="#ffffff" stroke="#d9d9d9"/><rect x="590.0" y="282.0" width="96.0" height="24.0" fill="#ffffff" stroke="#d9d9d9"/><rect x="686.0" y="282.0" width="96.0" height="24.0" fill="#ffffff" stroke="#d9d9d9"/><rect x="782.0" y="282.0" width="96.0" height="24.0" fill="#ffffff" stroke="#d9d9d9"/><rect x="878.0" y="282.0" width="74.0" height="24.0" fill="#ffffff" stroke="#d9d9d9"/><rect x="44.0" y="306.0" width="200.0" height="24.0" fill="#ffffff" stroke="#d9d9d9"/><rect x="244.0" y="306.0" width="140.0" height="24.0" fill="#ffffff" stroke="#d9d9d9"/><rect x="384.0" y="306.0" width="110.0" height="24.0" fill="#ffffff" stroke="#d9d9d9"/><rect x="494.0" y="306.0" width="96.0" height="24.0" fill="#ffffff" stroke="#d9d9d9"/><rect x="590.0" y="306.0" width="96.0" height="24.0" fill="#ffffff" stroke="#d9d9d9"/><rect x="686.0" y="306.0" width="96.0" height="24.0" fill="#ffffff" stroke="#d9d9d9"/><rect x="782.0" y="306.0" width="96.0" height="24.0" fill="#ffffff" stroke="#d9d9d9"/><rect x="878.0" y="306.0" width="74.0" height="24.0" fill="#ffffff" stroke="#d9d9d9"/><rect x="44.0" y="330.0" width="200.0" height="24.0" fill="#ffffff" stroke="#d9d9d9"/><rect x="244.0" y="330.0" width="140.0" height="24.0" fill="#ffffff" stroke="#d9d9d9"/><rect x="384.0" y="330.0" width="110.0" height="24.0" fill="#ffffff" stroke="#d9d9d9"/><rect x="494.0" y="330.0" width="96.0" height="24.0" fill="#ffffff" stroke="#d9d9d9"/><rect x="590.0" y="330.0" width="96.0" height="24.0" fill="#ffffff" stroke="#d9d9d9"/><rect x="686.0" y="330.0" width="96.0" height="24.0" fill="#ffffff" stroke="#d9d9d9"/><rect x="782.0" y="330.0" width="96.0" height="24.0" fill="#ffffff" stroke="#d9d9d9"/><rect x="878.0" y="330.0" width="74.0" height="24.0" fill="#ffffff" stroke="#d9d9d9"/><rect x="44.0" y="354.0" width="200.0" height="24.0" fill="#ffffff" stroke="#d9d9d9"/><rect x="244.0" y="354.0" width="140.0" height="24.0" fill="#ffffff" stroke="#d9d9d9"/><rect x="384.0" y="354.0" width="110.0" height="24.0" fill="#ffffff" stroke="#d9d9d9"/><rect x="494.0" y="354.0" width="96.0" height="24.0" fill="#ffffff" stroke="#d9d9d9"/><rect x="590.0" y="354.0" width="96.0" height="24.0" fill="#ffffff" stroke="#d9d9d9"/><rect x="686.0" y="354.0" width="96.0" height="24.0" fill="#ffffff" stroke="#d9d9d9"/><rect x="782.0" y="354.0" width="96.0" height="24.0" fill="#ffffff" stroke="#d9d9d9"/><rect x="878.0" y="354.0" width="74.0" height="24.0" fill="#ffffff" stroke="#d9d9d9"/><rect x="44.0" y="378.0" width="200.0" height="24.0" fill="#ffffff" stroke="#d9d9d9"/><rect x="244.0" y="378.0" width="140.0" height="24.0" fill="#ffffff" stroke="#d9d9d9"/><rect x="384.0" y="378.0" width="110.0" height="24.0" fill="#ffffff" stroke="#d9d9d9"/><rect x="494.0" y="378.0" width="96.0" height="24.0" fill="#ffffff" stroke="#d9d9d9"/><rect x="590.0" y="378.0" width="96.0" height="24.0" fill="#ffffff" stroke="#d9d9d9"/><rect x="686.0" y="378.0" width="96.0" height="24.0" fill="#ffffff" stroke="#d9d9d9"/><rect x="782.0" y="378.0" width="96.0" height="24.0" fill="#ffffff" stroke="#d9d9d9"/><rect x="878.0" y="378.0" width="74.0" height="24.0" fill="#ffffff" stroke="#d9d9d9"/><rect x="44.0" y="402.0" width="200.0" height="24.0" fill="#ffffff" stroke="#d9d9d9"/><rect x="244.0" y="402.0" width="140.0" height="24.0" fill="#ffffff" stroke="#d9d9d9"/><rect x="384.0" y="402.0" width="110.0" height="24.0" fill="#ffffff" stroke="#d9d9d9"/><rect x="494.0" y="402.0" width="96.0" height="24.0" fill="#ffffff" stroke="#d9d9d9"/><rect x="590.0" y="402.0" width="96.0" height="24.0" fill="#ffffff" stroke="#d9d9d9"/><rect x="686.0" y="402.0" width="96.0" height="24.0" fill="#ffffff" stroke="#d9d9d9"/><rect x="782.0" y="402.0" width="96.0" height="24.0" fill="#ffffff" stroke="#d9d9d9"/><rect x="878.0" y="402.0" width="74.0" height="24.0" fill="#ffffff" stroke="#d9d9d9"/><rect x="44.0" y="210.0" width="200.0" height="24.0" fill="#1f3864" stroke="#ffffff"/><rect x="244.0" y="210.0" width="140.0" height="24.0" fill="#1f3864" stroke="#ffffff"/><rect x="384.0" y="210.0" width="110.0" height="24.0" fill="#1f3864" stroke="#ffffff"/><rect x="44.0" y="210.0" width="200.0" height="24.0" fill="none" stroke="#7f7f7f"/><rect x="244.0" y="210.0" width="140.0" height="24.0" fill="none" stroke="#7f7f7f"/><rect x="384.0" y="210.0" width="110.0" height="24.0" fill="none" stroke="#7f7f7f"/><rect x="44.0" y="234.0" width="200.0" height="24.0" fill="none" stroke="#7f7f7f"/><rect x="244.0" y="234.0" width="140.0" height="24.0" fill="none" stroke="#7f7f7f"/><rect x="384.0" y="234.0" width="110.0" height="24.0" fill="none" stroke="#7f7f7f"/><rect x="44.0" y="258.0" width="200.0" height="24.0" fill="none" stroke="#7f7f7f"/><rect x="244.0" y="258.0" width="140.0" height="24.0" fill="none" stroke="#7f7f7f"/><rect x="384.0" y="258.0" width="110.0" height="24.0" fill="none" stroke="#7f7f7f"/><rect x="44.0" y="282.0" width="200.0" height="24.0" fill="none" stroke="#7f7f7f"/><rect x="244.0" y="282.0" width="140.0" height="24.0" fill="none" stroke="#7f7f7f"/><rect x="384.0" y="282.0" width="110.0" height="24.0" fill="none" stroke="#7f7f7f"/><rect x="44.0" y="306.0" width="200.0" height="24.0" fill="none" stroke="#7f7f7f"/><rect x="244.0" y="306.0" width="140.0" height="24.0" fill="none" stroke="#7f7f7f"/><rect x="384.0" y="306.0" width="110.0" height="24.0" fill="none" stroke="#7f7f7f"/><rect x="44.0" y="330.0" width="200.0" height="24.0" fill="none" stroke="#7f7f7f"/><rect x="244.0" y="330.0" width="140.0" height="24.0" fill="none" stroke="#7f7f7f"/><rect x="384.0" y="330.0" width="110.0" height="24.0" fill="none" stroke="#7f7f7f"/><rect x="244.0" y="402.0" width="140.0" height="24.0" fill="#217346" fill-opacity="0.12" stroke="#217346" stroke-width="2.5"/><text x="49.0" y="202.0" font-family="Segoe UI, Arial, sans-serif" font-size="12.5" fill="#1f2937">RESUMO DO ESTOQUE — SETEMB…</text><text x="144.0" y="226.0" font-family="Segoe UI, Arial, sans-serif" font-size="12" font-weight="700" fill="#ffffff" text-anchor="middle">Categoria</text><text x="314.0" y="226.0" font-family="Segoe UI, Arial, sans-serif" font-size="12" font-weight="700" fill="#ffffff" text-anchor="middle">Valor em Estoque</text><text x="439.0" y="226.0" font-family="Segoe UI, Arial, sans-serif" font-size="12" font-weight="700" fill="#ffffff" text-anchor="middle">% do Total</text><text x="49.0" y="250.0" font-family="Segoe UI, Arial, sans-serif" font-size="12.5" fill="#1f2937">EPI</text><text x="49.0" y="274.0" font-family="Segoe UI, Arial, sans-serif" font-size="12.5" fill="#1f2937">Fixação</text><text x="49.0" y="298.0" font-family="Segoe UI, Arial, sans-serif" font-size="12.5" fill="#1f2937">Elétrico</text><text x="49.0" y="322.0" font-family="Segoe UI, Arial, sans-serif" font-size="12.5" fill="#1f2937">Ferramentas</text><text x="49.0" y="346.0" font-family="Segoe UI, Arial, sans-serif" font-size="12.5" fill="#1f2937">Total</text><text x="49.0" y="418.0" font-family="Segoe UI, Arial, sans-serif" font-size="12.5" fill="#1f2937">Valor das saídas do mês</text><rect x="0.0" y="430.0" width="960.0" height="30.0" fill="#f3f3f3"/><rect x="48.0" y="432.0" width="84.0" height="24.0" fill="#e9e9e9" stroke="#c8c8c8"/><text x="90.0" y="449.0" font-family="Segoe UI, Arial, sans-serif" font-size="12.5" text-anchor="middle" fill="#444">Cadastro</text><rect x="136.0" y="432.0" width="114.0" height="24.0" fill="#e9e9e9" stroke="#c8c8c8"/><text x="193.0" y="449.0" font-family="Segoe UI, Arial, sans-serif" font-size="12.5" text-anchor="middle" fill="#444">Movimentacao</text><rect x="254.0" y="432.0" width="84.0" height="24.0" fill="#e9e9e9" stroke="#c8c8c8"/><text x="296.0" y="449.0" font-family="Segoe UI, Arial, sans-serif" font-size="12.5" text-anchor="middle" fill="#444">Consulta</text><rect x="342.0" y="432.0" width="69.0" height="24.0" fill="#ffffff" stroke="#217346"/><text x="376.5" y="449.0" font-family="Segoe UI, Arial, sans-serif" font-size="12.5" text-anchor="middle" font-weight="700" fill="#217346">Resumo</text><rect x="419.0" y="434.0" width="22.0" height="20.0" rx="11" fill="#ffffff" stroke="#999"/><text x="430.0" y="449.0" font-family="Segoe UI, Arial, sans-serif" font-size="15" text-anchor="middle" fill="#444">+</text><rect x="242.0" y="400.0" width="144.0" height="28.0" rx="4" fill="none" stroke="#f47b20" stroke-width="3"/><circle cx="402.0" cy="414.0" r="14" fill="#f47b20" stroke="#ffffff" stroke-width="2"/><text x="402.0" y="419.0" font-family="Segoe UI, Arial, sans-serif" font-size="14" font-weight="800" fill="#ffffff" text-anchor="middle">1</text></svg>
