<svg xmlns="http://www.w3.org/2000/svg" viewBox="0 0 960 440" role="img" aria-label="Coluna H Valor Total com a fórmula =F2*G2 na célula H2"><title>Coluna H Valor Total com a fórmula =F2*G2 na célula H2</title><defs><marker id="ponta" viewBox="0 0 10 10" refX="9" refY="5" markerWidth="7" markerHeight="7" orient="auto-start-reverse"><path d="M0,0 L10,5 L0,10 z" fill="#f47b20"/></marker></defs><rect x="0.0" y="0.0" width="960.0" height="440.0" fill="#ffffff" stroke="#9aa4b2"/><rect x="0.0" y="0.0" width="960.0" height="28.0" fill="#217346"/><text x="12.0" y="19.0" font-family="Segoe UI, Arial, sans-serif" font-size="13" font-weight="700" fill="#ffffff">Excel</text><text x="946.0" y="19.0" font-family="Segoe UI, Arial, sans-serif" font-size="13" fill="#ffffff" text-anchor="end">COMPRAS-NOME-SOBRENOME.xlsx</text><rect x="0.0" y="28.0" width="960.0" height="26.0" fill="#f3f3f3"/><text x="19.0" y="45.0" font-family="Segoe UI, Arial, sans-serif" font-size="12" fill="#333" >Arquivo</text><rect x="79.0" y="30.0" width="116.0" height="24.0" fill="#ffffff"/><rect x="79.0" y="51.0" width="116.0" height="3.0" fill="#217346"/><text x="88.0" y="45.0" font-family="Segoe UI, Arial, sans-serif" font-size="12" fill="#333" font-weight="700">Página Inicial</text><text x="206.0" y="45.0" font-family="Segoe UI, Arial, sans-serif" font-size="12" fill="#333" >Inserir</text><text x="275.0" y="45.0" font-family="Segoe UI, Arial, sans-serif" font-size="12" fill="#333" >Layout da Página</text><text x="407.0" y="45.0" font-family="Segoe UI, Arial, sans-serif" font-size="12" fill="#333" >Fórmulas</text><text x="483.0" y="45.0" font-family="Segoe UI, Arial, sans-serif" font-size="12" fill="#333" >Dados</text><text x="538.0" y="45.0" font-family="Segoe UI, Arial, sans-serif" font-size="12" fill="#333" >Revisão</text><text x="607.0" y="45.0" font-family="Segoe UI, Arial, sans-serif" font-size="12" fill="#333" >Exibir</text><rect x="0.0" y="54.0" width="960.0" height="70.0" fill="#ffffff" stroke="#e1e1e1"/><rect x="8.0" y="60.0" width="80.0" height="58.0" rx="5" fill="#f7f7f7" stroke="#e0e0e0"/><text x="48.0" y="80.0" font-family="Segoe UI, Arial, sans-serif" font-size="16" font-weight="700" fill="#217346" text-anchor="middle">▣</text><text x="48.0" y="96.0" font-family="Segoe UI, Arial, sans-serif" font-size="10.5" fill="#333" text-anchor="middle">Colar</text><rect x="94.0" y="60.0" width="80.0" height="58.0" rx="5" fill="#f7f7f7" stroke="#e0e0e0"/><text x="134.0" y="80.0" font-family="Segoe UI, Arial, sans-serif" font-size="16" font-weight="700" fill="#217346" text-anchor="middle">✎</text><text x="134.0" y="96.0" font-family="Segoe UI, Arial, sans-serif" font-size="10.5" fill="#333" text-anchor="middle">Pincel de</text><text x="134.0" y="108.0" font-family="Segoe UI, Arial, sans-serif" font-size="10.5" fill="#333" text-anchor="middle">Formatação</text><rect x="180.0" y="60.0" width="80.0" height="58.0" rx="5" fill="#f7f7f7" stroke="#e0e0e0"/><text x="220.0" y="80.0" font-family="Segoe UI, Arial, sans-serif" font-size="16" font-weight="700" fill="#217346" text-anchor="middle">N</text><text x="220.0" y="96.0" font-family="Segoe UI, Arial, sans-serif" font-size="10.5" fill="#333" text-anchor="middle">Negrito</text><rect x="266.0" y="60.0" width="80.0" height="58.0" rx="5" fill="#f7f7f7" stroke="#e0e0e0"/><text x="306.0" y="80.0" font-family="Segoe UI, Arial, sans-serif" font-size="16" font-weight="700" fill="#217346" text-anchor="middle">A</text><text x="306.0" y="96.0" font-family="Segoe UI, Arial, sans-serif" font-size="10.5" fill="#333" text-anchor="middle">Cor da Fonte</text><rect x="352.0" y="60.0" width="80.0" height="58.0" rx="5" fill="#f7f7f7" stroke="#e0e0e0"/><text x="392.0" y="80.0" font-family="Segoe UI, Arial, sans-serif" font-size="16" font-weight="700" fill="#217346" text-anchor="middle">◧</text><text x="392.0" y="96.0" font-family="Segoe UI, Arial, sans-serif" font-size="10.5" fill="#333" text-anchor="middle">Cor de</text><text x="392.0" y="108.0" font-family="Segoe UI, Arial, sans-serif" font-size="10.5" fill="#333" text-anchor="middle">Preenchimento</text><rect x="438.0" y="60.0" width="80.0" height="58.0" rx="5" fill="#f7f7f7" stroke="#e0e0e0"/><text x="478.0" y="80.0" font-family="Segoe UI, Arial, sans-serif" font-size="16" font-weight="700" fill="#217346" text-anchor="middle">▦</text><text x="478.0" y="96.0" font-family="Segoe UI, Arial, sans-serif" font-size="10.5" fill="#333" text-anchor="middle">Bordas</text><rect x="524.0" y="60.0" width="80.0" height="58.0" rx="5" fill="#f7f7f7" stroke="#e0e0e0"/><text x="564.0" y="80.0" font-family="Segoe UI, Arial, sans-serif" font-size="16" font-weight="700" fill="#217346" text-anchor="middle">≡</text><text x="564.0" y="96.0" font-family="Segoe UI, Arial, sans-serif" font-size="10.5" fill="#333" text-anchor="middle">Centralizar</text><rect x="610.0" y="60.0" width="80.0" height="58.0" rx="5" fill="#f7f7f7" stroke="#e0e0e0"/><text x="650.0" y="80.0" font-family="Segoe UI, Arial, sans-serif" font-size="16" font-weight="700" fill="#217346" text-anchor="middle">R$</text><text x="650.0" y="96.0" font-family="Segoe UI, Arial, sans-serif" font-size="10.5" fill="#333" text-anchor="middle">Moeda</text><rect x="696.0" y="60.0" width="80.0" height="58.0" rx="5" fill="#f7f7f7" stroke="#e0e0e0"/><text x="736.0" y="80.0" font-family="Segoe UI, Arial, sans-serif" font-size="16" font-weight="700" fill="#217346" text-anchor="middle">%</text><text x="736.0" y="96.0" font-family="Segoe UI, Arial, sans-serif" font-size="10.5" fill="#333" text-anchor="middle">Porcentagem</text><rect x="782.0" y="60.0" width="80.0" height="58.0" rx="5" fill="#f7f7f7" stroke="#e0e0e0"/><text x="822.0" y="80.0" font-family="Segoe UI, Arial, sans-serif" font-size="16" font-weight="700" fill="#217346" text-anchor="middle">▤</text><text x="822.0" y="96.0" font-family="Segoe UI, Arial, sans-serif" font-size="10.5" fill="#333" text-anchor="middle">Formatação</text><text x="822.0" y="108.0" font-family="Segoe UI, Arial, sans-serif" font-size="10.5" fill="#333" text-anchor="middle">Condicional</text><rect x="868.0" y="60.0" width="80.0" height="58.0" rx="5" fill="#f7f7f7" stroke="#e0e0e0"/><text x="908.0" y="80.0" font-family="Segoe UI, Arial, sans-serif" font-size="16" font-weight="700" fill="#217346" text-anchor="middle">⇅</text><text x="908.0" y="96.0" font-family="Segoe UI, Arial, sans-serif" font-size="10.5" fill="#333" text-anchor="middle">Classificar e</text><text x="908.0" y="108.0" font-family="Segoe UI, Arial, sans-serif" font-size="10.5" fill="#333" text-anchor="middle">Filtrar</text><rect x="8.0" y="130.0" width="90.0" height="26.0" fill="#ffffff" stroke="#c8c8c8"/><text x="16.0" y="148.0" font-size="13" font-family="Consolas, Courier New, monospace">H2</text><text x="110.0" y="148.0" font-family="Segoe UI, Arial, sans-serif" font-size="13" font-style="italic" fill="#666">fx</text><rect x="132.0" y="130.0" width="820.0" height="26.0" fill="#ffffff" stroke="#c8c8c8"/><text x="140" y="148" font-family="Consolas, Courier New, monospace" font-size="13.5" xml:space="preserve"><tspan fill="#1f2937" font-weight="400">=F2*G2</tspan></text><rect x="8.0" y="164.0" width="36.0" height="22.0" fill="#f0f0f0" stroke="#d9d9d9"/><rect x="44.0" y="164.0" width="90.0" height="22.0" fill="#f0f0f0" stroke="#d9d9d9"/><text x="89.0" y="179.0" font-family="Segoe UI, Arial, sans-serif" font-size="12" fill="#555" text-anchor="middle">A</text><rect x="134.0" y="164.0" width="80.0" height="22.0" fill="#f0f0f0" stroke="#d9d9d9"/><text x="174.0" y="179.0" font-family="Segoe UI, Arial, sans-serif" font-size="12" fill="#555" text-anchor="middle">B</text><rect x="214.0" y="164.0" width="140.0" height="22.0" fill="#f0f0f0" stroke="#d9d9d9"/><text x="284.0" y="179.0" font-family="Segoe UI, Arial, sans-serif" font-size="12" fill="#555" text-anchor="middle">C</text><rect x="354.0" y="164.0" width="90.0" height="22.0" fill="#f0f0f0" stroke="#d9d9d9"/><text x="399.0" y="179.0" font-family="Segoe UI, Arial, sans-serif" font-size="12" fill="#555" text-anchor="middle">D</text><rect x="444.0" y="164.0" width="170.0" height="22.0" fill="#f0f0f0" stroke="#d9d9d9"/><text x="529.0" y="179.0" font-family="Segoe UI, Arial, sans-serif" font-size="12" fill="#555" text-anchor="middle">E</text><rect x="614.0" y="164.0" width="86.0" height="22.0" fill="#f0f0f0" stroke="#d9d9d9"/><text x="657.0" y="179.0" font-family="Segoe UI, Arial, sans-serif" font-size="12" fill="#555" text-anchor="middle">F</text><rect x="700.0" y="164.0" width="104.0" height="22.0" fill="#f0f0f0" stroke="#d9d9d9"/><text x="752.0" y="179.0" font-family="Segoe UI, Arial, sans-serif" font-size="12" fill="#555" text-anchor="middle">G</text><rect x="804.0" y="164.0" width="110.0" height="22.0" fill="#f0f0f0" stroke="#d9d9d9"/><text x="859.0" y="179.0" font-family="Segoe UI, Arial, sans-serif" font-size="12" fill="#555" text-anchor="middle">H</text><rect x="914.0" y="164.0" width="38.0" height="22.0" fill="#f0f0f0" stroke="#d9d9d9"/><text x="933.0" y="179.0" font-family="Segoe UI, Arial, sans-serif" font-size="12" fill="#555" text-anchor="middle">I</text><rect x="8.0" y="186.0" width="36.0" height="24.0" fill="#f0f0f0" stroke="#d9d9d9"/><text x="26.0" y="202.0" font-family="Segoe UI, Arial, sans-serif" font-size="12" fill="#555" text-anchor="middle">1</text><rect x="8.0" y="210.0" width="36.0" height="24.0" fill="#f0f0f0" stroke="#d9d9d9"/><text x="26.0" y="226.0" font-family="Segoe UI, Arial, sans-serif" font-size="12" fill="#555" text-anchor="middle">2</text><rect x="8.0" y="234.0" width="36.0" height="24.0" fill="#f0f0f0" stroke="#d9d9d9"/><text x="26.0" y="250.0" font-family="Segoe UI, Arial, sans-serif" font-size="12" fill="#555" text-anchor="middle">3</text><rect x="8.0" y="258.0" width="36.0" height="24.0" fill="#f0f0f0" stroke="#d9d9d9"/><text x="26.0" y="274.0" font-family="Segoe UI, Arial, sans-serif" font-size="12" fill="#555" text-anchor="middle">4</text><rect x="8.0" y="282.0" width="36.0" height="24.0" fill="#f0f0f0" stroke="#d9d9d9"/><text x="26.0" y="298.0" font-family="Segoe UI, Arial, sans-serif" font-size="12" fill="#555" text-anchor="middle">5</text><rect x="8.0" y="306.0" width="36.0" height="24.0" fill="#f0f0f0" stroke="#d9d9d9"/><text x="26.0" y="322.0" font-family="Segoe UI, Arial, sans-serif" font-size="12" fill="#555" text-anchor="middle">6</text><rect x="8.0" y="330.0" width="36.0" height="24.0" fill="#f0f0f0" stroke="#d9d9d9"/><text x="26.0" y="346.0" font-family="Segoe UI, Arial, sans-serif" font-size="12" fill="#555" text-anchor="middle">7</text><rect x="8.0" y="354.0" width="36.0" height="24.0" fill="#f0f0f0" stroke="#d9d9d9"/><text x="26.0" y="370.0" font-family="Segoe UI, Arial, sans-serif" font-size="12" fill="#555" text-anchor="middle">8</text><rect x="8.0" y="378.0" width="36.0" height="24.0" fill="#f0f0f0" stroke="#d9d9d9"/><text x="26.0" y="394.0" font-family="Segoe UI, Arial, sans-serif" font-size="12" fill="#555" text-anchor="middle">9</text><rect x="44.0" y="186.0" width="90.0" height="24.0" fill="#ffffff" stroke="#d9d9d9"/><rect x="134.0" y="186.0" width="80.0" height="24.0" fill="#ffffff" stroke="#d9d9d9"/><rect x="214.0" y="186.0" width="140.0" height="24.0" fill="#ffffff" stroke="#d9d9d9"/><rect x="354.0" y="186.0" width="90.0" height="24.0" fill="#ffffff" stroke="#d9d9d9"/><rect x="444.0" y="186.0" width="170.0" height="24.0" fill="#ffffff" stroke="#d9d9d9"/><rect x="614.0" y="186.0" width="86.0" height="24.0" fill="#ffffff" stroke="#d9d9d9"/><rect x="700.0" y="186.0" width="104.0" height="24.0" fill="#ffffff" stroke="#d9d9d9"/><rect x="804.0" y="186.0" width="110.0" height="24.0" fill="#ffffff" stroke="#d9d9d9"/><rect x="914.0" y="186.0" width="38.0" height="24.0" fill="#ffffff" stroke="#d9d9d9"/><rect x="44.0" y="210.0" width="90.0" height="24.0" fill="#ffffff" stroke="#d9d9d9"/><rect x="134.0" y="210.0" width="80.0" height="24.0" fill="#ffffff" stroke="#d9d9d9"/><rect x="214.0" y="210.0" width="140.0" height="24.0" fill="#ffffff" stroke="#d9d9d9"/><rect x="354.0" y="210.0" width="90.0" height="24.0" fill="#ffffff" stroke="#d9d9d9"/><rect x="444.0" y="210.0" width="170.0" height="24.0" fill="#ffffff" stroke="#d9d9d9"/><rect x="614.0" y="210.0" width="86.0" height="24.0" fill="#ffffff" stroke="#d9d9d9"/><rect x="700.0" y="210.0" width="104.0" height="24.0" fill="#ffffff" stroke="#d9d9d9"/><rect x="804.0" y="210.0" width="110.0" height="24.0" fill="#ffffff" stroke="#d9d9d9"/><rect x="914.0" y="210.0" width="38.0" height="24.0" fill="#ffffff" stroke="#d9d9d9"/><rect x="44.0" y="234.0" width="90.0" height="24.0" fill="#ffffff" stroke="#d9d9d9"/><rect x="134.0" y="234.0" width="80.0" height="24.0" fill="#ffffff" stroke="#d9d9d9"/><rect x="214.0" y="234.0" width="140.0" height="24.0" fill="#ffffff" stroke="#d9d9d9"/><rect x="354.0" y="234.0" width="90.0" height="24.0" fill="#ffffff" stroke="#d9d9d9"/><rect x="444.0" y="234.0" width="170.0" height="24.0" fill="#ffffff" stroke="#d9d9d9"/><rect x="614.0" y="234.0" width="86.0" height="24.0" fill="#ffffff" stroke="#d9d9d9"/><rect x="700.0" y="234.0" width="104.0" height="24.0" fill="#ffffff" stroke="#d9d9d9"/><rect x="804.0" y="234.0" width="110.0" height="24.0" fill="#ffffff" stroke="#d9d9d9"/><rect x="914.0" y="234.0" width="38.0" height="24.0" fill="#ffffff" stroke="#d9d9d9"/><rect x="44.0" y="258.0" width="90.0" height="24.0" fill="#ffffff" stroke="#d9d9d9"/><rect x="134.0" y="258.0" width="80.0" height="24.0" fill="#ffffff" stroke="#d9d9d9"/><rect x="214.0" y="258.0" width="140.0" height="24.0" fill="#ffffff" stroke="#d9d9d9"/><rect x="354.0" y="258.0" width="90.0" height="24.0" fill="#ffffff" stroke="#d9d9d9"/><rect x="444.0" y="258.0" width="170.0" height="24.0" fill="#ffffff" stroke="#d9d9d9"/><rect x="614.0" y="258.0" width="86.0" height="24.0" fill="#ffffff" stroke="#d9d9d9"/><rect x="700.0" y="258.0" width="104.0" height="24.0" fill="#ffffff" stroke="#d9d9d9"/><rect x="804.0" y="258.0" width="110.0" height="24.0" fill="#ffffff" stroke="#d9d9d9"/><rect x="914.0" y="258.0" width="38.0" height="24.0" fill="#ffffff" stroke="#d9d9d9"/><rect x="44.0" y="282.0" width="90.0" height="24.0" fill="#ffffff" stroke="#d9d9d9"/><rect x="134.0" y="282.0" width="80.0" height="24.0" fill="#ffffff" stroke="#d9d9d9"/><rect x="214.0" y="282.0" width="140.0" height="24.0" fill="#ffffff" stroke="#d9d9d9"/><rect x="354.0" y="282.0" width="90.0" height="24.0" fill="#ffffff" stroke="#d9d9d9"/><rect x="444.0" y="282.0" width="170.0" height="24.0" fill="#ffffff" stroke="#d9d9d9"/><rect x="614.0" y="282.0" width="86.0" height="24.0" fill="#ffffff" stroke="#d9d9d9"/><rect x="700.0" y="282.0" width="104.0" height="24.0" fill="#ffffff" stroke="#d9d9d9"/><rect x="804.0" y="282.0" width="110.0" height="24.0" fill="#ffffff" stroke="#d9d9d9"/><rect x="914.0" y="282.0" width="38.0" height="24.0" fill="#ffffff" stroke="#d9d9d9"/><rect x="44.0" y="306.0" width="90.0" height="24.0" fill="#ffffff" stroke="#d9d9d9"/><rect x="134.0" y="306.0" width="80.0" height="24.0" fill="#ffffff" stroke="#d9d9d9"/><rect x="214.0" y="306.0" width="140.0" height="24.0" fill="#ffffff" stroke="#d9d9d9"/><rect x="354.0" y="306.0" width="90.0" height="24.0" fill="#ffffff" stroke="#d9d9d9"/><rect x="444.0" y="306.0" width="170.0" height="24.0" fill="#ffffff" stroke="#d9d9d9"/><rect x="614.0" y="306.0" width="86.0" height="24.0" fill="#ffffff" stroke="#d9d9d9"/><rect x="700.0" y="306.0" width="104.0" height="24.0" fill="#ffffff" stroke="#d9d9d9"/><rect x="804.0" y="306.0" width="110.0" height="24.0" fill="#ffffff" stroke="#d9d9d9"/><rect x="914.0" y="306.0" width="38.0" height="24.0" fill="#ffffff" stroke="#d9d9d9"/><rect x="44.0" y="330.0" width="90.0" height="24.0" fill="#ffffff" stroke="#d9d9d9"/><rect x="134.0" y="330.0" width="80.0" height="24.0" fill="#ffffff" stroke="#d9d9d9"/><rect x="214.0" y="330.0" width="140.0" height="24.0" fill="#ffffff" stroke="#d9d9d9"/><rect x="354.0" y="330.0" width="90.0" height="24.0" fill="#ffffff" stroke="#d9d9d9"/><rect x="444.0" y="330.0" width="170.0" height="24.0" fill="#ffffff" stroke="#d9d9d9"/><rect x="614.0" y="330.0" width="86.0" height="24.0" fill="#ffffff" stroke="#d9d9d9"/><rect x="700.0" y="330.0" width="104.0" height="24.0" fill="#ffffff" stroke="#d9d9d9"/><rect x="804.0" y="330.0" width="110.0" height="24.0" fill="#ffffff" stroke="#d9d9d9"/><rect x="914.0" y="330.0" width="38.0" height="24.0" fill="#ffffff" stroke="#d9d9d9"/><rect x="44.0" y="354.0" width="90.0" height="24.0" fill="#ffffff" stroke="#d9d9d9"/><rect x="134.0" y="354.0" width="80.0" height="24.0" fill="#ffffff" stroke="#d9d9d9"/><rect x="214.0" y="354.0" width="140.0" height="24.0" fill="#ffffff" stroke="#d9d9d9"/><rect x="354.0" y="354.0" width="90.0" height="24.0" fill="#ffffff" stroke="#d9d9d9"/><rect x="444.0" y="354.0" width="170.0" height="24.0" fill="#ffffff" stroke="#d9d9d9"/><rect x="614.0" y="354.0" width="86.0" height="24.0" fill="#ffffff" stroke="#d9d9d9"/><rect x="700.0" y="354.0" width="104.0" height="24.0" fill="#ffffff" stroke="#d9d9d9"/><rect x="804.0" y="354.0" width="110.0" height="24.0" fill="#ffffff" stroke="#d9d9d9"/><rect x="914.0" y="354.0" width="38.0" height="24.0" fill="#ffffff" stroke="#d9d9d9"/><rect x="44.0" y="378.0" width="90.0" height="24.0" fill="#ffffff" stroke="#d9d9d9"/><rect x="134.0" y="378.0" width="80.0" height="24.0" fill="#ffffff" stroke="#d9d9d9"/><rect x="214.0" y="378.0" width="140.0" height="24.0" fill="#ffffff" stroke="#d9d9d9"/><rect x="354.0" y="378.0" width="90.0" height="24.0" fill="#ffffff" stroke="#d9d9d9"/><rect x="444.0" y="378.0" width="170.0" height="24.0" fill="#ffffff" stroke="#d9d9d9"/><rect x="614.0" y="378.0" width="86.0" height="24.0" fill="#ffffff" stroke="#d9d9d9"/><rect x="700.0" y="378.0" width="104.0" height="24.0" fill="#ffffff" stroke="#d9d9d9"/><rect x="804.0" y="378.0" width="110.0" height="24.0" fill="#ffffff" stroke="#d9d9d9"/><rect x="914.0" y="378.0" width="38.0" height="24.0" fill="#ffffff" stroke="#d9d9d9"/><rect x="44.0" y="186.0" width="90.0" height="24.0" fill="#1f3864" stroke="#ffffff"/><rect x="134.0" y="186.0" width="80.0" height="24.0" fill="#1f3864" stroke="#ffffff"/><rect x="214.0" y="186.0" width="140.0" height="24.0" fill="#1f3864" stroke="#ffffff"/><rect x="354.0" y="186.0" width="90.0" height="24.0" fill="#1f3864" stroke="#ffffff"/><rect x="444.0" y="186.0" width="170.0" height="24.0" fill="#1f3864" stroke="#ffffff"/><rect x="614.0" y="186.0" width="86.0" height="24.0" fill="#1f3864" stroke="#ffffff"/><rect x="700.0" y="186.0" width="104.0" height="24.0" fill="#1f3864" stroke="#ffffff"/><rect x="804.0" y="186.0" width="110.0" height="24.0" fill="#1f3864" stroke="#ffffff"/><rect x="804.0" y="210.0" width="110.0" height="24.0" fill="#217346" fill-opacity="0.12" stroke="#217346" stroke-width="2.5"/><text x="89.0" y="202.0" font-family="Segoe UI, Arial, sans-serif" font-size="12" font-weight="700" fill="#ffffff" text-anchor="middle">Data</text><text x="174.0" y="202.0" font-family="Segoe UI, Arial, sans-serif" font-size="12" font-weight="700" fill="#ffffff" text-anchor="middle">Nº Pedido</text><text x="284.0" y="202.0" font-family="Segoe UI, Arial, sans-serif" font-size="12" font-weight="700" fill="#ffffff" text-anchor="middle">Fornecedor</text><text x="399.0" y="202.0" font-family="Segoe UI, Arial, sans-serif" font-size="12" font-weight="700" fill="#ffffff" text-anchor="middle">Categoria</text><text x="529.0" y="202.0" font-family="Segoe UI, Arial, sans-serif" font-size="12" font-weight="700" fill="#ffffff" text-anchor="middle">Item</text><text x="657.0" y="202.0" font-family="Segoe UI, Arial, sans-serif" font-size="12" font-weight="700" fill="#ffffff" text-anchor="middle">Quantidade</text><text x="752.0" y="202.0" font-family="Segoe UI, Arial, sans-serif" font-size="12" font-weight="700" fill="#ffffff" text-anchor="middle">Valor Unitár…</text><text x="859.0" y="202.0" font-family="Segoe UI, Arial, sans-serif" font-size="12" font-weight="700" fill="#ffffff" text-anchor="middle">Valor Total</text><text x="129.0" y="226.0" font-family="Segoe UI, Arial, sans-serif" font-size="12.5" fill="#1f2937" text-anchor="end">05/01/2026</text><text x="139.0" y="226.0" font-family="Segoe UI, Arial, sans-serif" font-size="12.5" fill="#1f2937">P-001</text><text x="219.0" y="226.0" font-family="Segoe UI, Arial, sans-serif" font-size="12.5" fill="#1f2937">Alfa Suprimentos</text><text x="359.0" y="226.0" font-family="Segoe UI, Arial, sans-serif" font-size="12.5" fill="#1f2937">EPI</text><text x="449.0" y="226.0" font-family="Segoe UI, Arial, sans-serif" font-size="12.5" fill="#1f2937">Luva de vaqueta</text><text x="695.0" y="226.0" font-family="Segoe UI, Arial, sans-serif" font-size="12.5" fill="#1f2937" text-anchor="end">40</text><text x="799.0" y="226.0" font-family="Segoe UI, Arial, sans-serif" font-size="12.5" fill="#1f2937" text-anchor="end">18,90</text><text x="129.0" y="250.0" font-family="Segoe UI, Arial, sans-serif" font-size="12.5" fill="#1f2937" text-anchor="end">09/01/2026</text><text x="139.0" y="250.0" font-family="Segoe UI, Arial, sans-serif" font-size="12.5" fill="#1f2937">P-002</text><text x="219.0" y="250.0" font-family="Segoe UI, Arial, sans-serif" font-size="12.5" fill="#1f2937">Beta Industrial</text><text x="359.0" y="250.0" font-family="Segoe UI, Arial, sans-serif" font-size="12.5" fill="#1f2937">Fixação</text><text x="449.0" y="250.0" font-family="Segoe UI, Arial, sans-serif" font-size="12.5" fill="#1f2937">Parafuso sextavado M8</text><text x="695.0" y="250.0" font-family="Segoe UI, Arial, sans-serif" font-size="12.5" fill="#1f2937" text-anchor="end">2000</text><text x="799.0" y="250.0" font-family="Segoe UI, Arial, sans-serif" font-size="12.5" fill="#1f2937" text-anchor="end">0,45</text><text x="129.0" y="274.0" font-family="Segoe UI, Arial, sans-serif" font-size="12.5" fill="#1f2937" text-anchor="end">14/01/2026</text><text x="139.0" y="274.0" font-family="Segoe UI, Arial, sans-serif" font-size="12.5" fill="#1f2937">P-003</text><text x="219.0" y="274.0" font-family="Segoe UI, Arial, sans-serif" font-size="12.5" fill="#1f2937">Beta Industrial</text><text x="359.0" y="274.0" font-family="Segoe UI, Arial, sans-serif" font-size="12.5" fill="#1f2937">Elétrico</text><text x="449.0" y="274.0" font-family="Segoe UI, Arial, sans-serif" font-size="12.5" fill="#1f2937">Cabo flexível 2,5 mm²</text><text x="695.0" y="274.0" font-family="Segoe UI, Arial, sans-serif" font-size="12.5" fill="#1f2937" text-anchor="end">200</text><text x="799.0" y="274.0" font-family="Segoe UI, Arial, sans-serif" font-size="12.5" fill="#1f2937" text-anchor="end">3,40</text><text x="129.0" y="298.0" font-family="Segoe UI, Arial, sans-serif" font-size="12.5" fill="#1f2937" text-anchor="end">20/01/2026</text><text x="139.0" y="298.0" font-family="Segoe UI, Arial, sans-serif" font-size="12.5" fill="#1f2937">P-004</text><text x="219.0" y="298.0" font-family="Segoe UI, Arial, sans-serif" font-size="12.5" fill="#1f2937">Cometa EPI</text><text x="359.0" y="298.0" font-family="Segoe UI, Arial, sans-serif" font-size="12.5" fill="#1f2937">EPI</text><text x="449.0" y="298.0" font-family="Segoe UI, Arial, sans-serif" font-size="12.5" fill="#1f2937">Máscara PFF2</text><text x="695.0" y="298.0" font-family="Segoe UI, Arial, sans-serif" font-size="12.5" fill="#1f2937" text-anchor="end">150</text><text x="799.0" y="298.0" font-family="Segoe UI, Arial, sans-serif" font-size="12.5" fill="#1f2937" text-anchor="end">3,20</text><text x="129.0" y="322.0" font-family="Segoe UI, Arial, sans-serif" font-size="12.5" fill="#1f2937" text-anchor="end">23/01/2026</text><text x="139.0" y="322.0" font-family="Segoe UI, Arial, sans-serif" font-size="12.5" fill="#1f2937">P-005</text><text x="219.0" y="322.0" font-family="Segoe UI, Arial, sans-serif" font-size="12.5" fill="#1f2937">Delta Ferramentas</text><text x="359.0" y="322.0" font-family="Segoe UI, Arial, sans-serif" font-size="12.5" fill="#1f2937">Ferramentas</text><text x="449.0" y="322.0" font-family="Segoe UI, Arial, sans-serif" font-size="12.5" fill="#1f2937">Disco de corte 7&quot;</text><text x="695.0" y="322.0" font-family="Segoe UI, Arial, sans-serif" font-size="12.5" fill="#1f2937" text-anchor="end">40</text><text x="799.0" y="322.0" font-family="Segoe UI, Arial, sans-serif" font-size="12.5" fill="#1f2937" text-anchor="end">9,80</text><text x="129.0" y="346.0" font-family="Segoe UI, Arial, sans-serif" font-size="12.5" fill="#1f2937" text-anchor="end">28/01/2026</text><text x="139.0" y="346.0" font-family="Segoe UI, Arial, sans-serif" font-size="12.5" fill="#1f2937">P-006</text><text x="219.0" y="346.0" font-family="Segoe UI, Arial, sans-serif" font-size="12.5" fill="#1f2937">Beta Industrial</text><text x="359.0" y="346.0" font-family="Segoe UI, Arial, sans-serif" font-size="12.5" fill="#1f2937">Elétrico</text><text x="449.0" y="346.0" font-family="Segoe UI, Arial, sans-serif" font-size="12.5" fill="#1f2937">Disjuntor 20 A</text><text x="695.0" y="346.0" font-family="Segoe UI, Arial, sans-serif" font-size="12.5" fill="#1f2937" text-anchor="end">20</text><text x="799.0" y="346.0" font-family="Segoe UI, Arial, sans-serif" font-size="12.5" fill="#1f2937" text-anchor="end">24,90</text><text x="129.0" y="370.0" font-family="Segoe UI, Arial, sans-serif" font-size="12.5" fill="#1f2937" text-anchor="end">03/02/2026</text><text x="139.0" y="370.0" font-family="Segoe UI, Arial, sans-serif" font-size="12.5" fill="#1f2937">P-007</text><text x="219.0" y="370.0" font-family="Segoe UI, Arial, sans-serif" font-size="12.5" fill="#1f2937">Beta Industrial</text><text x="359.0" y="370.0" font-family="Segoe UI, Arial, sans-serif" font-size="12.5" fill="#1f2937">Fixação</text><text x="449.0" y="370.0" font-family="Segoe UI, Arial, sans-serif" font-size="12.5" fill="#1f2937">Porca M8</text><text x="695.0" y="370.0" font-family="Segoe UI, Arial, sans-serif" font-size="12.5" fill="#1f2937" text-anchor="end">2000</text><text x="799.0" y="370.0" font-family="Segoe UI, Arial, sans-serif" font-size="12.5" fill="#1f2937" text-anchor="end">0,15</text><text x="129.0" y="394.0" font-family="Segoe UI, Arial, sans-serif" font-size="12.5" fill="#1f2937" text-anchor="end">06/02/2026</text><text x="139.0" y="394.0" font-family="Segoe UI, Arial, sans-serif" font-size="12.5" fill="#1f2937">P-008</text><text x="219.0" y="394.0" font-family="Segoe UI, Arial, sans-serif" font-size="12.5" fill="#1f2937">Alfa Suprimentos</text><text x="359.0" y="394.0" font-family="Segoe UI, Arial, sans-serif" font-size="12.5" fill="#1f2937">EPI</text><text x="449.0" y="394.0" font-family="Segoe UI, Arial, sans-serif" font-size="12.5" fill="#1f2937">Óculos de proteção</text><text x="695.0" y="394.0" font-family="Segoe UI, Arial, sans-serif" font-size="12.5" fill="#1f2937" text-anchor="end">30</text><text x="799.0" y="394.0" font-family="Segoe UI, Arial, sans-serif" font-size="12.5" fill="#1f2937" text-anchor="end">12,50</text><rect x="0.0" y="406.0" width="960.0" height="30.0" fill="#f3f3f3"/><rect x="48.0" y="408.0" width="114.0" height="24.0" fill="#ffffff" stroke="#217346"/><text x="105.0" y="425.0" font-family="Segoe UI, Arial, sans-serif" font-size="12.5" text-anchor="middle" font-weight="700" fill="#217346">Base_Compras</text><rect x="170.0" y="410.0" width="22.0" height="20.0" rx="11" fill="#ffffff" stroke="#999"/><text x="181.0" y="425.0" font-family="Segoe UI, Arial, sans-serif" font-size="15" text-anchor="middle" fill="#444">+</text><rect x="802.0" y="208.0" width="114.0" height="28.0" rx="4" fill="none" stroke="#f47b20" stroke-width="3"/><circle cx="859.0" cy="252.0" r="14" fill="#f47b20" stroke="#ffffff" stroke-width="2"/><text x="859.0" y="257.0" font-family="Segoe UI, Arial, sans-serif" font-size="14" font-weight="800" fill="#ffffff" text-anchor="middle">1</text><rect x="563.0" y="304.0" width="330.0" height="50.0" fill="#000000" fill-opacity="0.18"/><rect x="560.0" y="300.0" width="330.0" height="50.0" rx="6" fill="#fff6bf" stroke="#d4b106"/><text x="570.0" y="320.0" font-family="Segoe UI, Arial, sans-serif" font-size="12.5" fill="#3d3000">Depois copie até a última compra com duplo</text><text x="570.0" y="337.0" font-family="Segoe UI, Arial, sans-serif" font-size="12.5" fill="#3d3000">clique na alça do canto da célula.</text></svg>
