<svg xmlns="http://www.w3.org/2000/svg" viewBox="0 0 960 584" role="img" aria-label="Gráfico de barras horizontais com rótulos de dados na ponta das barras"><title>Gráfico de barras horizontais com rótulos de dados na ponta das barras</title><defs><marker id="ponta" viewBox="0 0 10 10" refX="9" refY="5" markerWidth="7" markerHeight="7" orient="auto-start-reverse"><path d="M0,0 L10,5 L0,10 z" fill="#f47b20"/></marker></defs><rect x="0.0" y="0.0" width="960.0" height="584.0" fill="#ffffff" stroke="#9aa4b2"/><rect x="0.0" y="0.0" width="960.0" height="28.0" fill="#217346"/><text x="12.0" y="19.0" font-family="Segoe UI, Arial, sans-serif" font-size="13" font-weight="700" fill="#ffffff">Excel</text><text x="946.0" y="19.0" font-family="Segoe UI, Arial, sans-serif" font-size="13" fill="#ffffff" text-anchor="end">COMPRAS-NOME-SOBRENOME.xlsx</text><rect x="0.0" y="28.0" width="960.0" height="26.0" fill="#f3f3f3"/><text x="19.0" y="45.0" font-family="Segoe UI, Arial, sans-serif" font-size="12" fill="#333" >Arquivo</text><text x="88.0" y="45.0" font-family="Segoe UI, Arial, sans-serif" font-size="12" fill="#333" >Página Inicial</text><text x="206.0" y="45.0" font-family="Segoe UI, Arial, sans-serif" font-size="12" fill="#333" >Inserir</text><text x="275.0" y="45.0" font-family="Segoe UI, Arial, sans-serif" font-size="12" fill="#333" >Layout da Página</text><text x="407.0" y="45.0" font-family="Segoe UI, Arial, sans-serif" font-size="12" fill="#333" >Fórmulas</text><text x="483.0" y="45.0" font-family="Segoe UI, Arial, sans-serif" font-size="12" fill="#333" >Dados</text><text x="538.0" y="45.0" font-family="Segoe UI, Arial, sans-serif" font-size="12" fill="#333" >Revisão</text><text x="607.0" y="45.0" font-family="Segoe UI, Arial, sans-serif" font-size="12" fill="#333" >Exibir</text><rect x="660.0" y="30.0" width="137.0" height="24.0" fill="#ffffff"/><rect x="660.0" y="51.0" width="137.0" height="3.0" fill="#217346"/><text x="669.0" y="45.0" font-family="Segoe UI, Arial, sans-serif" font-size="12" fill="#333" font-weight="700">Design do Gráfico</text><rect x="0.0" y="54.0" width="960.0" height="70.0" fill="#ffffff" stroke="#e1e1e1"/><rect x="8.0" y="60.0" width="80.0" height="58.0" rx="5" fill="#f7f7f7" stroke="#e0e0e0"/><text x="48.0" y="80.0" font-family="Segoe UI, Arial, sans-serif" font-size="16" font-weight="700" fill="#217346" text-anchor="middle">+</text><text x="48.0" y="96.0" font-family="Segoe UI, Arial, sans-serif" font-size="10.5" fill="#333" text-anchor="middle">Adicionar</text><text x="48.0" y="108.0" font-family="Segoe UI, Arial, sans-serif" font-size="10.5" fill="#333" text-anchor="middle">Elemento de</text><rect x="94.0" y="60.0" width="80.0" height="58.0" rx="5" fill="#f7f7f7" stroke="#e0e0e0"/><text x="134.0" y="80.0" font-family="Segoe UI, Arial, sans-serif" font-size="16" font-weight="700" fill="#217346" text-anchor="middle">▦</text><text x="134.0" y="96.0" font-family="Segoe UI, Arial, sans-serif" font-size="10.5" fill="#333" text-anchor="middle">Layout Rápido</text><rect x="180.0" y="60.0" width="80.0" height="58.0" rx="5" fill="#f7f7f7" stroke="#e0e0e0"/><text x="220.0" y="80.0" font-family="Segoe UI, Arial, sans-serif" font-size="16" font-weight="700" fill="#217346" text-anchor="middle">◧</text><text x="220.0" y="96.0" font-family="Segoe UI, Arial, sans-serif" font-size="10.5" fill="#333" text-anchor="middle">Alterar Cores</text><rect x="266.0" y="60.0" width="80.0" height="58.0" rx="5" fill="#f7f7f7" stroke="#e0e0e0"/><text x="306.0" y="80.0" font-family="Segoe UI, Arial, sans-serif" font-size="16" font-weight="700" fill="#217346" text-anchor="middle">▥</text><text x="306.0" y="96.0" font-family="Segoe UI, Arial, sans-serif" font-size="10.5" fill="#333" text-anchor="middle">Alterar Tipo</text><text x="306.0" y="108.0" font-family="Segoe UI, Arial, sans-serif" font-size="10.5" fill="#333" text-anchor="middle">de Gráfico</text><rect x="8.0" y="130.0" width="90.0" height="26.0" fill="#ffffff" stroke="#c8c8c8"/><text x="16.0" y="148.0" font-size="13" font-family="Consolas, Courier New, monospace">A3</text><text x="110.0" y="148.0" font-family="Segoe UI, Arial, sans-serif" font-size="13" font-style="italic" fill="#666">fx</text><rect x="132.0" y="130.0" width="820.0" height="26.0" fill="#ffffff" stroke="#c8c8c8"/><text x="140" y="148" font-family="Consolas, Courier New, monospace" font-size="13.5" xml:space="preserve"><tspan fill="#1f2937" font-weight="400"></tspan></text><rect x="8.0" y="164.0" width="36.0" height="22.0" fill="#f0f0f0" stroke="#d9d9d9"/><rect x="44.0" y="164.0" width="170.0" height="22.0" fill="#f0f0f0" stroke="#d9d9d9"/><text x="129.0" y="179.0" font-family="Segoe UI, Arial, sans-serif" font-size="12" fill="#555" text-anchor="middle">A</text><rect x="214.0" y="164.0" width="150.0" height="22.0" fill="#f0f0f0" stroke="#d9d9d9"/><text x="289.0" y="179.0" font-family="Segoe UI, Arial, sans-serif" font-size="12" fill="#555" text-anchor="middle">B</text><rect x="364.0" y="164.0" width="30.0" height="22.0" fill="#f0f0f0" stroke="#d9d9d9"/><text x="379.0" y="179.0" font-family="Segoe UI, Arial, sans-serif" font-size="12" fill="#555" text-anchor="middle">C</text><rect x="394.0" y="164.0" width="200.0" height="22.0" fill="#f0f0f0" stroke="#d9d9d9"/><text x="494.0" y="179.0" font-family="Segoe UI, Arial, sans-serif" font-size="12" fill="#555" text-anchor="middle">D</text><rect x="594.0" y="164.0" width="150.0" height="22.0" fill="#f0f0f0" stroke="#d9d9d9"/><text x="669.0" y="179.0" font-family="Segoe UI, Arial, sans-serif" font-size="12" fill="#555" text-anchor="middle">E</text><rect x="744.0" y="164.0" width="96.0" height="22.0" fill="#f0f0f0" stroke="#d9d9d9"/><text x="792.0" y="179.0" font-family="Segoe UI, Arial, sans-serif" font-size="12" fill="#555" text-anchor="middle">F</text><rect x="840.0" y="164.0" width="96.0" height="22.0" fill="#f0f0f0" stroke="#d9d9d9"/><text x="888.0" y="179.0" font-family="Segoe UI, Arial, sans-serif" font-size="12" fill="#555" text-anchor="middle">G</text><rect x="936.0" y="164.0" width="16.0" height="22.0" fill="#f0f0f0" stroke="#d9d9d9"/><text x="944.0" y="179.0" font-family="Segoe UI, Arial, sans-serif" font-size="12" fill="#555" text-anchor="middle">H</text><rect x="8.0" y="186.0" width="36.0" height="24.0" fill="#f0f0f0" stroke="#d9d9d9"/><text x="26.0" y="202.0" font-family="Segoe UI, Arial, sans-serif" font-size="12" fill="#555" text-anchor="middle">1</text><rect x="8.0" y="210.0" width="36.0" height="24.0" fill="#f0f0f0" stroke="#d9d9d9"/><text x="26.0" y="226.0" font-family="Segoe UI, Arial, sans-serif" font-size="12" fill="#555" text-anchor="middle">2</text><rect x="8.0" y="234.0" width="36.0" height="24.0" fill="#f0f0f0" stroke="#d9d9d9"/><text x="26.0" y="250.0" font-family="Segoe UI, Arial, sans-serif" font-size="12" fill="#555" text-anchor="middle">3</text><rect x="8.0" y="258.0" width="36.0" height="24.0" fill="#f0f0f0" stroke="#d9d9d9"/><text x="26.0" y="274.0" font-family="Segoe UI, Arial, sans-serif" font-size="12" fill="#555" text-anchor="middle">4</text><rect x="8.0" y="282.0" width="36.0" height="24.0" fill="#f0f0f0" stroke="#d9d9d9"/><text x="26.0" y="298.0" font-family="Segoe UI, Arial, sans-serif" font-size="12" fill="#555" text-anchor="middle">5</text><rect x="8.0" y="306.0" width="36.0" height="24.0" fill="#f0f0f0" stroke="#d9d9d9"/><text x="26.0" y="322.0" font-family="Segoe UI, Arial, sans-serif" font-size="12" fill="#555" text-anchor="middle">6</text><rect x="8.0" y="330.0" width="36.0" height="24.0" fill="#f0f0f0" stroke="#d9d9d9"/><text x="26.0" y="346.0" font-family="Segoe UI, Arial, sans-serif" font-size="12" fill="#555" text-anchor="middle">7</text><rect x="8.0" y="354.0" width="36.0" height="24.0" fill="#f0f0f0" stroke="#d9d9d9"/><text x="26.0" y="370.0" font-family="Segoe UI, Arial, sans-serif" font-size="12" fill="#555" text-anchor="middle">8</text><rect x="8.0" y="378.0" width="36.0" height="24.0" fill="#f0f0f0" stroke="#d9d9d9"/><text x="26.0" y="394.0" font-family="Segoe UI, Arial, sans-serif" font-size="12" fill="#555" text-anchor="middle">9</text><rect x="8.0" y="402.0" width="36.0" height="24.0" fill="#f0f0f0" stroke="#d9d9d9"/><text x="26.0" y="418.0" font-family="Segoe UI, Arial, sans-serif" font-size="12" fill="#555" text-anchor="middle">10</text><rect x="8.0" y="426.0" width="36.0" height="24.0" fill="#f0f0f0" stroke="#d9d9d9"/><text x="26.0" y="442.0" font-family="Segoe UI, Arial, sans-serif" font-size="12" fill="#555" text-anchor="middle">11</text><rect x="8.0" y="450.0" width="36.0" height="24.0" fill="#f0f0f0" stroke="#d9d9d9"/><text x="26.0" y="466.0" font-family="Segoe UI, Arial, sans-serif" font-size="12" fill="#555" text-anchor="middle">12</text><rect x="8.0" y="474.0" width="36.0" height="24.0" fill="#f0f0f0" stroke="#d9d9d9"/><text x="26.0" y="490.0" font-family="Segoe UI, Arial, sans-serif" font-size="12" fill="#555" text-anchor="middle">13</text><rect x="8.0" y="498.0" width="36.0" height="24.0" fill="#f0f0f0" stroke="#d9d9d9"/><text x="26.0" y="514.0" font-family="Segoe UI, Arial, sans-serif" font-size="12" fill="#555" text-anchor="middle">14</text><rect x="8.0" y="522.0" width="36.0" height="24.0" fill="#f0f0f0" stroke="#d9d9d9"/><text x="26.0" y="538.0" font-family="Segoe UI, Arial, sans-serif" font-size="12" fill="#555" text-anchor="middle">15</text><rect x="44.0" y="186.0" width="170.0" height="24.0" fill="#ffffff" stroke="#d9d9d9"/><rect x="214.0" y="186.0" width="150.0" height="24.0" fill="#ffffff" stroke="#d9d9d9"/><rect x="364.0" y="186.0" width="30.0" height="24.0" fill="#ffffff" stroke="#d9d9d9"/><rect x="394.0" y="186.0" width="200.0" height="24.0" fill="#ffffff" stroke="#d9d9d9"/><rect x="594.0" y="186.0" width="150.0" height="24.0" fill="#ffffff" stroke="#d9d9d9"/><rect x="744.0" y="186.0" width="96.0" height="24.0" fill="#ffffff" stroke="#d9d9d9"/><rect x="840.0" y="186.0" width="96.0" height="24.0" fill="#ffffff" stroke="#d9d9d9"/><rect x="936.0" y="186.0" width="16.0" height="24.0" fill="#ffffff" stroke="#d9d9d9"/><rect x="44.0" y="210.0" width="170.0" height="24.0" fill="#ffffff" stroke="#d9d9d9"/><rect x="214.0" y="210.0" width="150.0" height="24.0" fill="#ffffff" stroke="#d9d9d9"/><rect x="364.0" y="210.0" width="30.0" height="24.0" fill="#ffffff" stroke="#d9d9d9"/><rect x="394.0" y="210.0" width="200.0" height="24.0" fill="#ffffff" stroke="#d9d9d9"/><rect x="594.0" y="210.0" width="150.0" height="24.0" fill="#ffffff" stroke="#d9d9d9"/><rect x="744.0" y="210.0" width="96.0" height="24.0" fill="#ffffff" stroke="#d9d9d9"/><rect x="840.0" y="210.0" width="96.0" height="24.0" fill="#ffffff" stroke="#d9d9d9"/><rect x="936.0" y="210.0" width="16.0" height="24.0" fill="#ffffff" stroke="#d9d9d9"/><rect x="44.0" y="234.0" width="170.0" height="24.0" fill="#ffffff" stroke="#d9d9d9"/><rect x="214.0" y="234.0" width="150.0" height="24.0" fill="#ffffff" stroke="#d9d9d9"/><rect x="364.0" y="234.0" width="30.0" height="24.0" fill="#ffffff" stroke="#d9d9d9"/><rect x="394.0" y="234.0" width="200.0" height="24.0" fill="#ffffff" stroke="#d9d9d9"/><rect x="594.0" y="234.0" width="150.0" height="24.0" fill="#ffffff" stroke="#d9d9d9"/><rect x="744.0" y="234.0" width="96.0" height="24.0" fill="#ffffff" stroke="#d9d9d9"/><rect x="840.0" y="234.0" width="96.0" height="24.0" fill="#ffffff" stroke="#d9d9d9"/><rect x="936.0" y="234.0" width="16.0" height="24.0" fill="#ffffff" stroke="#d9d9d9"/><rect x="44.0" y="258.0" width="170.0" height="24.0" fill="#ffffff" stroke="#d9d9d9"/><rect x="214.0" y="258.0" width="150.0" height="24.0" fill="#ffffff" stroke="#d9d9d9"/><rect x="364.0" y="258.0" width="30.0" height="24.0" fill="#ffffff" stroke="#d9d9d9"/><rect x="394.0" y="258.0" width="200.0" height="24.0" fill="#ffffff" stroke="#d9d9d9"/><rect x="594.0" y="258.0" width="150.0" height="24.0" fill="#ffffff" stroke="#d9d9d9"/><rect x="744.0" y="258.0" width="96.0" height="24.0" fill="#ffffff" stroke="#d9d9d9"/><rect x="840.0" y="258.0" width="96.0" height="24.0" fill="#ffffff" stroke="#d9d9d9"/><rect x="936.0" y="258.0" width="16.0" height="24.0" fill="#ffffff" stroke="#d9d9d9"/><rect x="44.0" y="282.0" width="170.0" height="24.0" fill="#ffffff" stroke="#d9d9d9"/><rect x="214.0" y="282.0" width="150.0" height="24.0" fill="#ffffff" stroke="#d9d9d9"/><rect x="364.0" y="282.0" width="30.0" height="24.0" fill="#ffffff" stroke="#d9d9d9"/><rect x="394.0" y="282.0" width="200.0" height="24.0" fill="#ffffff" stroke="#d9d9d9"/><rect x="594.0" y="282.0" width="150.0" height="24.0" fill="#ffffff" stroke="#d9d9d9"/><rect x="744.0" y="282.0" width="96.0" height="24.0" fill="#ffffff" stroke="#d9d9d9"/><rect x="840.0" y="282.0" width="96.0" height="24.0" fill="#ffffff" stroke="#d9d9d9"/><rect x="936.0" y="282.0" width="16.0" height="24.0" fill="#ffffff" stroke="#d9d9d9"/><rect x="44.0" y="306.0" width="170.0" height="24.0" fill="#ffffff" stroke="#d9d9d9"/><rect x="214.0" y="306.0" width="150.0" height="24.0" fill="#ffffff" stroke="#d9d9d9"/><rect x="364.0" y="306.0" width="30.0" height="24.0" fill="#ffffff" stroke="#d9d9d9"/><rect x="394.0" y="306.0" width="200.0" height="24.0" fill="#ffffff" stroke="#d9d9d9"/><rect x="594.0" y="306.0" width="150.0" height="24.0" fill="#ffffff" stroke="#d9d9d9"/><rect x="744.0" y="306.0" width="96.0" height="24.0" fill="#ffffff" stroke="#d9d9d9"/><rect x="840.0" y="306.0" width="96.0" height="24.0" fill="#ffffff" stroke="#d9d9d9"/><rect x="936.0" y="306.0" width="16.0" height="24.0" fill="#ffffff" stroke="#d9d9d9"/><rect x="44.0" y="330.0" width="170.0" height="24.0" fill="#ffffff" stroke="#d9d9d9"/><rect x="214.0" y="330.0" width="150.0" height="24.0" fill="#ffffff" stroke="#d9d9d9"/><rect x="364.0" y="330.0" width="30.0" height="24.0" fill="#ffffff" stroke="#d9d9d9"/><rect x="394.0" y="330.0" width="200.0" height="24.0" fill="#ffffff" stroke="#d9d9d9"/><rect x="594.0" y="330.0" width="150.0" height="24.0" fill="#ffffff" stroke="#d9d9d9"/><rect x="744.0" y="330.0" width="96.0" height="24.0" fill="#ffffff" stroke="#d9d9d9"/><rect x="840.0" y="330.0" width="96.0" height="24.0" fill="#ffffff" stroke="#d9d9d9"/><rect x="936.0" y="330.0" width="16.0" height="24.0" fill="#ffffff" stroke="#d9d9d9"/><rect x="44.0" y="354.0" width="170.0" height="24.0" fill="#ffffff" stroke="#d9d9d9"/><rect x="214.0" y="354.0" width="150.0" height="24.0" fill="#ffffff" stroke="#d9d9d9"/><rect x="364.0" y="354.0" width="30.0" height="24.0" fill="#ffffff" stroke="#d9d9d9"/><rect x="394.0" y="354.0" width="200.0" height="24.0" fill="#ffffff" stroke="#d9d9d9"/><rect x="594.0" y="354.0" width="150.0" height="24.0" fill="#ffffff" stroke="#d9d9d9"/><rect x="744.0" y="354.0" width="96.0" height="24.0" fill="#ffffff" stroke="#d9d9d9"/><rect x="840.0" y="354.0" width="96.0" height="24.0" fill="#ffffff" stroke="#d9d9d9"/><rect x="936.0" y="354.0" width="16.0" height="24.0" fill="#ffffff" stroke="#d9d9d9"/><rect x="44.0" y="378.0" width="170.0" height="24.0" fill="#ffffff" stroke="#d9d9d9"/><rect x="214.0" y="378.0" width="150.0" height="24.0" fill="#ffffff" stroke="#d9d9d9"/><rect x="364.0" y="378.0" width="30.0" height="24.0" fill="#ffffff" stroke="#d9d9d9"/><rect x="394.0" y="378.0" width="200.0" height="24.0" fill="#ffffff" stroke="#d9d9d9"/><rect x="594.0" y="378.0" width="150.0" height="24.0" fill="#ffffff" stroke="#d9d9d9"/><rect x="744.0" y="378.0" width="96.0" height="24.0" fill="#ffffff" stroke="#d9d9d9"/><rect x="840.0" y="378.0" width="96.0" height="24.0" fill="#ffffff" stroke="#d9d9d9"/><rect x="936.0" y="378.0" width="16.0" height="24.0" fill="#ffffff" stroke="#d9d9d9"/><rect x="44.0" y="402.0" width="170.0" height="24.0" fill="#ffffff" stroke="#d9d9d9"/><rect x="214.0" y="402.0" width="150.0" height="24.0" fill="#ffffff" stroke="#d9d9d9"/><rect x="364.0" y="402.0" width="30.0" height="24.0" fill="#ffffff" stroke="#d9d9d9"/><rect x="394.0" y="402.0" width="200.0" height="24.0" fill="#ffffff" stroke="#d9d9d9"/><rect x="594.0" y="402.0" width="150.0" height="24.0" fill="#ffffff" stroke="#d9d9d9"/><rect x="744.0" y="402.0" width="96.0" height="24.0" fill="#ffffff" stroke="#d9d9d9"/><rect x="840.0" y="402.0" width="96.0" height="24.0" fill="#ffffff" stroke="#d9d9d9"/><rect x="936.0" y="402.0" width="16.0" height="24.0" fill="#ffffff" stroke="#d9d9d9"/><rect x="44.0" y="426.0" width="170.0" height="24.0" fill="#ffffff" stroke="#d9d9d9"/><rect x="214.0" y="426.0" width="150.0" height="24.0" fill="#ffffff" stroke="#d9d9d9"/><rect x="364.0" y="426.0" width="30.0" height="24.0" fill="#ffffff" stroke="#d9d9d9"/><rect x="394.0" y="426.0" width="200.0" height="24.0" fill="#ffffff" stroke="#d9d9d9"/><rect x="594.0" y="426.0" width="150.0" height="24.0" fill="#ffffff" stroke="#d9d9d9"/><rect x="744.0" y="426.0" width="96.0" height="24.0" fill="#ffffff" stroke="#d9d9d9"/><rect x="840.0" y="426.0" width="96.0" height="24.0" fill="#ffffff" stroke="#d9d9d9"/><rect x="936.0" y="426.0" width="16.0" height="24.0" fill="#ffffff" stroke="#d9d9d9"/><rect x="44.0" y="450.0" width="170.0" height="24.0" fill="#ffffff" stroke="#d9d9d9"/><rect x="214.0" y="450.0" width="150.0" height="24.0" fill="#ffffff" stroke="#d9d9d9"/><rect x="364.0" y="450.0" width="30.0" height="24.0" fill="#ffffff" stroke="#d9d9d9"/><rect x="394.0" y="450.0" width="200.0" height="24.0" fill="#ffffff" stroke="#d9d9d9"/><rect x="594.0" y="450.0" width="150.0" height="24.0" fill="#ffffff" stroke="#d9d9d9"/><rect x="744.0" y="450.0" width="96.0" height="24.0" fill="#ffffff" stroke="#d9d9d9"/><rect x="840.0" y="450.0" width="96.0" height="24.0" fill="#ffffff" stroke="#d9d9d9"/><rect x="936.0" y="450.0" width="16.0" height="24.0" fill="#ffffff" stroke="#d9d9d9"/><rect x="44.0" y="474.0" width="170.0" height="24.0" fill="#ffffff" stroke="#d9d9d9"/><rect x="214.0" y="474.0" width="150.0" height="24.0" fill="#ffffff" stroke="#d9d9d9"/><rect x="364.0" y="474.0" width="30.0" height="24.0" fill="#ffffff" stroke="#d9d9d9"/><rect x="394.0" y="474.0" width="200.0" height="24.0" fill="#ffffff" stroke="#d9d9d9"/><rect x="594.0" y="474.0" width="150.0" height="24.0" fill="#ffffff" stroke="#d9d9d9"/><rect x="744.0" y="474.0" width="96.0" height="24.0" fill="#ffffff" stroke="#d9d9d9"/><rect x="840.0" y="474.0" width="96.0" height="24.0" fill="#ffffff" stroke="#d9d9d9"/><rect x="936.0" y="474.0" width="16.0" height="24.0" fill="#ffffff" stroke="#d9d9d9"/><rect x="44.0" y="498.0" width="170.0" height="24.0" fill="#ffffff" stroke="#d9d9d9"/><rect x="214.0" y="498.0" width="150.0" height="24.0" fill="#ffffff" stroke="#d9d9d9"/><rect x="364.0" y="498.0" width="30.0" height="24.0" fill="#ffffff" stroke="#d9d9d9"/><rect x="394.0" y="498.0" width="200.0" height="24.0" fill="#ffffff" stroke="#d9d9d9"/><rect x="594.0" y="498.0" width="150.0" height="24.0" fill="#ffffff" stroke="#d9d9d9"/><rect x="744.0" y="498.0" width="96.0" height="24.0" fill="#ffffff" stroke="#d9d9d9"/><rect x="840.0" y="498.0" width="96.0" height="24.0" fill="#ffffff" stroke="#d9d9d9"/><rect x="936.0" y="498.0" width="16.0" height="24.0" fill="#ffffff" stroke="#d9d9d9"/><rect x="44.0" y="522.0" width="170.0" height="24.0" fill="#ffffff" stroke="#d9d9d9"/><rect x="214.0" y="522.0" width="150.0" height="24.0" fill="#ffffff" stroke="#d9d9d9"/><rect x="364.0" y="522.0" width="30.0" height="24.0" fill="#ffffff" stroke="#d9d9d9"/><rect x="394.0" y="522.0" width="200.0" height="24.0" fill="#ffffff" stroke="#d9d9d9"/><rect x="594.0" y="522.0" width="150.0" height="24.0" fill="#ffffff" stroke="#d9d9d9"/><rect x="744.0" y="522.0" width="96.0" height="24.0" fill="#ffffff" stroke="#d9d9d9"/><rect x="840.0" y="522.0" width="96.0" height="24.0" fill="#ffffff" stroke="#d9d9d9"/><rect x="936.0" y="522.0" width="16.0" height="24.0" fill="#ffffff" stroke="#d9d9d9"/><rect x="44.0" y="234.0" width="170.0" height="24.0" fill="#dbe5f1" stroke="#d9d9d9"/><rect x="214.0" y="234.0" width="150.0" height="24.0" fill="#dbe5f1" stroke="#d9d9d9"/><rect x="44.0" y="378.0" width="170.0" height="24.0" fill="#dbe5f1" stroke="#d9d9d9"/><rect x="214.0" y="378.0" width="150.0" height="24.0" fill="#dbe5f1" stroke="#d9d9d9"/><text x="49.0" y="250.0" font-family="Segoe UI, Arial, sans-serif" font-size="12.5" font-weight="700" fill="#1f2937">Rótulos de Linha</text><text x="219.0" y="250.0" font-family="Segoe UI, Arial, sans-serif" font-size="12.5" font-weight="700" fill="#1f2937">Soma de Valor Total</text><text x="49.0" y="394.0" font-family="Segoe UI, Arial, sans-serif" font-size="12.5" font-weight="700" fill="#1f2937">Total Geral</text><text x="209.0" y="274.0" font-family="Segoe UI, Arial, sans-serif" font-size="12.5" fill="#1f2937" text-anchor="end">•••</text><text x="359.0" y="274.0" font-family="Segoe UI, Arial, sans-serif" font-size="12.5" fill="#1f2937" text-anchor="end">•••</text><text x="209.0" y="298.0" font-family="Segoe UI, Arial, sans-serif" font-size="12.5" fill="#1f2937" text-anchor="end">•••</text><text x="359.0" y="298.0" font-family="Segoe UI, Arial, sans-serif" font-size="12.5" fill="#1f2937" text-anchor="end">•••</text><text x="209.0" y="322.0" font-family="Segoe UI, Arial, sans-serif" font-size="12.5" fill="#1f2937" text-anchor="end">•••</text><text x="359.0" y="322.0" font-family="Segoe UI, Arial, sans-serif" font-size="12.5" fill="#1f2937" text-anchor="end">•••</text><text x="209.0" y="346.0" font-family="Segoe UI, Arial, sans-serif" font-size="12.5" fill="#1f2937" text-anchor="end">•••</text><text x="359.0" y="346.0" font-family="Segoe UI, Arial, sans-serif" font-size="12.5" fill="#1f2937" text-anchor="end">•••</text><text x="209.0" y="370.0" font-family="Segoe UI, Arial, sans-serif" font-size="12.5" fill="#1f2937" text-anchor="end">•••</text><text x="359.0" y="370.0" font-family="Segoe UI, Arial, sans-serif" font-size="12.5" fill="#1f2937" text-anchor="end">•••</text><text x="359.0" y="394.0" font-family="Segoe UI, Arial, sans-serif" font-size="12.5" font-weight="700" fill="#1f2937" text-anchor="end">•••</text><rect x="0.0" y="550.0" width="960.0" height="30.0" fill="#f3f3f3"/><rect x="48.0" y="552.0" width="114.0" height="24.0" fill="#e9e9e9" stroke="#c8c8c8"/><text x="105.0" y="569.0" font-family="Segoe UI, Arial, sans-serif" font-size="12.5" text-anchor="middle" fill="#444">Base_Compras</text><rect x="166.0" y="552.0" width="121.5" height="24.0" fill="#e9e9e9" stroke="#c8c8c8"/><text x="226.8" y="569.0" font-family="Segoe UI, Arial, sans-serif" font-size="12.5" text-anchor="middle" fill="#444">TD_Fornecedor</text><rect x="291.5" y="552.0" width="69.0" height="24.0" fill="#e9e9e9" stroke="#c8c8c8"/><text x="326.0" y="569.0" font-family="Segoe UI, Arial, sans-serif" font-size="12.5" text-anchor="middle" fill="#444">TD_Mes</text><rect x="364.5" y="552.0" width="84.0" height="24.0" fill="#ffffff" stroke="#217346"/><text x="406.5" y="569.0" font-family="Segoe UI, Arial, sans-serif" font-size="12.5" text-anchor="middle" font-weight="700" fill="#217346">TD_Itens</text><rect x="456.5" y="554.0" width="22.0" height="20.0" rx="11" fill="#ffffff" stroke="#999"/><text x="467.5" y="569.0" font-family="Segoe UI, Arial, sans-serif" font-size="15" text-anchor="middle" fill="#444">+</text><rect x="363.0" y="180.0" width="560.0" height="330.0" fill="#000000" fill-opacity="0.12"/><rect x="360.0" y="176.0" width="560.0" height="330.0" fill="#ffffff" stroke="#9aa4b2"/><text x="640.0" y="198.0" font-family="Segoe UI, Arial, sans-serif" font-size="14" font-weight="700" fill="#333" text-anchor="middle">5 itens com maior valor comprado</text><rect x="510.0" y="224.4" width="350.0" height="29.7" fill="#4472c4"/><text x="502.0" y="244.8" font-family="Segoe UI, Arial, sans-serif" font-size="11.5" fill="#333" text-anchor="end">Item A</text><text x="865.0" y="244.8" font-family="Segoe UI, Arial, sans-serif" font-size="11" font-weight="700" fill="#333">42</text><rect x="510.0" y="270.8" width="316.7" height="29.7" fill="#4472c4"/><text x="502.0" y="291.2" font-family="Segoe UI, Arial, sans-serif" font-size="11.5" fill="#333" text-anchor="end">Item B</text><text x="831.7" y="291.2" font-family="Segoe UI, Arial, sans-serif" font-size="11" font-weight="700" fill="#333">38</text><rect x="510.0" y="317.2" width="258.3" height="29.7" fill="#4472c4"/><text x="502.0" y="337.6" font-family="Segoe UI, Arial, sans-serif" font-size="11.5" fill="#333" text-anchor="end">Item C</text><text x="773.3" y="337.6" font-family="Segoe UI, Arial, sans-serif" font-size="11" font-weight="700" fill="#333">31</text><rect x="510.0" y="363.6" width="225.0" height="29.7" fill="#4472c4"/><text x="502.0" y="384.0" font-family="Segoe UI, Arial, sans-serif" font-size="11.5" fill="#333" text-anchor="end">Item D</text><text x="740.0" y="384.0" font-family="Segoe UI, Arial, sans-serif" font-size="11" font-weight="700" fill="#333">27</text><rect x="510.0" y="410.0" width="133.3" height="29.7" fill="#4472c4"/><text x="502.0" y="430.4" font-family="Segoe UI, Arial, sans-serif" font-size="11.5" fill="#333" text-anchor="end">Item E</text><text x="648.3" y="430.4" font-family="Segoe UI, Arial, sans-serif" font-size="11" font-weight="700" fill="#333">16</text><rect x="510.0" y="216.0" width="1.2" height="232.0" fill="#999"/><rect x="833.0" y="184.0" width="79.0" height="18.0" rx="9" fill="#6b7280"/><text x="872.5" y="197.0" font-family="Segoe UI, Arial, sans-serif" font-size="10.5" font-weight="700" fill="#ffffff" text-anchor="middle">Ilustração</text><rect x="6.0" y="58.0" width="84.0" height="62.0" rx="4" fill="none" stroke="#f47b20" stroke-width="3"/><circle cx="48.0" cy="136.0" r="14" fill="#f47b20" stroke="#ffffff" stroke-width="2"/><text x="48.0" y="141.0" font-family="Segoe UI, Arial, sans-serif" font-size="14" font-weight="800" fill="#ffffff" text-anchor="middle">1</text><rect x="860.0" y="222.4" width="38.0" height="33.7" rx="4" fill="none" stroke="#f47b20" stroke-width="3"/><circle cx="914.0" cy="239.2" r="14" fill="#f47b20" stroke="#ffffff" stroke-width="2"/><text x="914.0" y="244.2" font-family="Segoe UI, Arial, sans-serif" font-size="14" font-weight="800" fill="#ffffff" text-anchor="middle">2</text></svg>
