<svg xmlns="http://www.w3.org/2000/svg" viewBox="0 0 960 416" role="img" aria-label="Nova compra P-037 na linha 38 da tabela e botão Atualizar Tudo da guia Dados"><title>Nova compra P-037 na linha 38 da tabela e botão Atualizar Tudo da guia Dados</title><defs><marker id="ponta" viewBox="0 0 10 10" refX="9" refY="5" markerWidth="7" markerHeight="7" orient="auto-start-reverse"><path d="M0,0 L10,5 L0,10 z" fill="#f47b20"/></marker></defs><rect x="0.0" y="0.0" width="960.0" height="416.0" fill="#ffffff" stroke="#9aa4b2"/><rect x="0.0" y="0.0" width="960.0" height="28.0" fill="#217346"/><text x="12.0" y="19.0" font-family="Segoe UI, Arial, sans-serif" font-size="13" font-weight="700" fill="#ffffff">Excel</text><text x="946.0" y="19.0" font-family="Segoe UI, Arial, sans-serif" font-size="13" fill="#ffffff" text-anchor="end">COMPRAS-NOME-SOBRENOME.xlsx</text><rect x="0.0" y="28.0" width="960.0" height="26.0" fill="#f3f3f3"/><text x="19.0" y="45.0" font-family="Segoe UI, Arial, sans-serif" font-size="12" fill="#333" >Arquivo</text><text x="88.0" y="45.0" font-family="Segoe UI, Arial, sans-serif" font-size="12" fill="#333" >Página Inicial</text><text x="206.0" y="45.0" font-family="Segoe UI, Arial, sans-serif" font-size="12" fill="#333" >Inserir</text><text x="275.0" y="45.0" font-family="Segoe UI, Arial, sans-serif" font-size="12" fill="#333" >Layout da Página</text><text x="407.0" y="45.0" font-family="Segoe UI, Arial, sans-serif" font-size="12" fill="#333" >Fórmulas</text><rect x="474.0" y="30.0" width="53.0" height="24.0" fill="#ffffff"/><rect x="474.0" y="51.0" width="53.0" height="3.0" fill="#217346"/><text x="483.0" y="45.0" font-family="Segoe UI, Arial, sans-serif" font-size="12" fill="#333" font-weight="700">Dados</text><text x="538.0" y="45.0" font-family="Segoe UI, Arial, sans-serif" font-size="12" fill="#333" >Revisão</text><text x="607.0" y="45.0" font-family="Segoe UI, Arial, sans-serif" font-size="12" fill="#333" >Exibir</text><rect x="0.0" y="54.0" width="960.0" height="70.0" fill="#ffffff" stroke="#e1e1e1"/><rect x="8.0" y="60.0" width="80.0" height="58.0" rx="5" fill="#f7f7f7" stroke="#e0e0e0"/><text x="48.0" y="80.0" font-family="Segoe UI, Arial, sans-serif" font-size="16" font-weight="700" fill="#217346" text-anchor="middle">⤓</text><text x="48.0" y="96.0" font-family="Segoe UI, Arial, sans-serif" font-size="10.5" fill="#333" text-anchor="middle">Obter Dados</text><rect x="94.0" y="60.0" width="80.0" height="58.0" rx="5" fill="#f7f7f7" stroke="#e0e0e0"/><text x="134.0" y="80.0" font-family="Segoe UI, Arial, sans-serif" font-size="16" font-weight="700" fill="#217346" text-anchor="middle">⇅</text><text x="134.0" y="96.0" font-family="Segoe UI, Arial, sans-serif" font-size="10.5" fill="#333" text-anchor="middle">Classificar</text><rect x="180.0" y="60.0" width="80.0" height="58.0" rx="5" fill="#f7f7f7" stroke="#e0e0e0"/><text x="220.0" y="80.0" font-family="Segoe UI, Arial, sans-serif" font-size="16" font-weight="700" fill="#217346" text-anchor="middle">▼</text><text x="220.0" y="96.0" font-family="Segoe UI, Arial, sans-serif" font-size="10.5" fill="#333" text-anchor="middle">Filtro</text><rect x="266.0" y="60.0" width="80.0" height="58.0" rx="5" fill="#f7f7f7" stroke="#e0e0e0"/><text x="306.0" y="80.0" font-family="Segoe UI, Arial, sans-serif" font-size="16" font-weight="700" fill="#217346" text-anchor="middle">✕</text><text x="306.0" y="96.0" font-family="Segoe UI, Arial, sans-serif" font-size="10.5" fill="#333" text-anchor="middle">Limpar</text><rect x="352.0" y="60.0" width="80.0" height="58.0" rx="5" fill="#f7f7f7" stroke="#e0e0e0"/><text x="392.0" y="80.0" font-family="Segoe UI, Arial, sans-serif" font-size="16" font-weight="700" fill="#217346" text-anchor="middle">✓</text><text x="392.0" y="96.0" font-family="Segoe UI, Arial, sans-serif" font-size="10.5" fill="#333" text-anchor="middle">Validação de</text><text x="392.0" y="108.0" font-family="Segoe UI, Arial, sans-serif" font-size="10.5" fill="#333" text-anchor="middle">Dados</text><rect x="438.0" y="60.0" width="80.0" height="58.0" rx="5" fill="#f7f7f7" stroke="#e0e0e0"/><text x="478.0" y="80.0" font-family="Segoe UI, Arial, sans-serif" font-size="16" font-weight="700" fill="#217346" text-anchor="middle">⧉</text><text x="478.0" y="96.0" font-family="Segoe UI, Arial, sans-serif" font-size="10.5" fill="#333" text-anchor="middle">Remover</text><text x="478.0" y="108.0" font-family="Segoe UI, Arial, sans-serif" font-size="10.5" fill="#333" text-anchor="middle">Duplicatas</text><rect x="524.0" y="60.0" width="80.0" height="58.0" rx="5" fill="#f7f7f7" stroke="#e0e0e0"/><text x="564.0" y="80.0" font-family="Segoe UI, Arial, sans-serif" font-size="16" font-weight="700" fill="#217346" text-anchor="middle">⟳</text><text x="564.0" y="96.0" font-family="Segoe UI, Arial, sans-serif" font-size="10.5" fill="#333" text-anchor="middle">Atualizar</text><text x="564.0" y="108.0" font-family="Segoe UI, Arial, sans-serif" font-size="10.5" fill="#333" text-anchor="middle">Tudo</text><rect x="8.0" y="130.0" width="90.0" height="26.0" fill="#ffffff" stroke="#c8c8c8"/><text x="16.0" y="148.0" font-size="13" font-family="Consolas, Courier New, monospace">A38</text><text x="110.0" y="148.0" font-family="Segoe UI, Arial, sans-serif" font-size="13" font-style="italic" fill="#666">fx</text><rect x="132.0" y="130.0" width="820.0" height="26.0" fill="#ffffff" stroke="#c8c8c8"/><text x="140" y="148" font-family="Consolas, Courier New, monospace" font-size="13.5" xml:space="preserve"><tspan fill="#1f2937" font-weight="400">30/06/2026</tspan></text><rect x="8.0" y="164.0" width="36.0" height="22.0" fill="#f0f0f0" stroke="#d9d9d9"/><rect x="44.0" y="164.0" width="90.0" height="22.0" fill="#f0f0f0" stroke="#d9d9d9"/><text x="89.0" y="179.0" font-family="Segoe UI, Arial, sans-serif" font-size="12" fill="#555" text-anchor="middle">A</text><rect x="134.0" y="164.0" width="80.0" height="22.0" fill="#f0f0f0" stroke="#d9d9d9"/><text x="174.0" y="179.0" font-family="Segoe UI, Arial, sans-serif" font-size="12" fill="#555" text-anchor="middle">B</text><rect x="214.0" y="164.0" width="140.0" height="22.0" fill="#f0f0f0" stroke="#d9d9d9"/><text x="284.0" y="179.0" font-family="Segoe UI, Arial, sans-serif" font-size="12" fill="#555" text-anchor="middle">C</text><rect x="354.0" y="164.0" width="90.0" height="22.0" fill="#f0f0f0" stroke="#d9d9d9"/><text x="399.0" y="179.0" font-family="Segoe UI, Arial, sans-serif" font-size="12" fill="#555" text-anchor="middle">D</text><rect x="444.0" y="164.0" width="170.0" height="22.0" fill="#f0f0f0" stroke="#d9d9d9"/><text x="529.0" y="179.0" font-family="Segoe UI, Arial, sans-serif" font-size="12" fill="#555" text-anchor="middle">E</text><rect x="614.0" y="164.0" width="86.0" height="22.0" fill="#f0f0f0" stroke="#d9d9d9"/><text x="657.0" y="179.0" font-family="Segoe UI, Arial, sans-serif" font-size="12" fill="#555" text-anchor="middle">F</text><rect x="700.0" y="164.0" width="104.0" height="22.0" fill="#f0f0f0" stroke="#d9d9d9"/><text x="752.0" y="179.0" font-family="Segoe UI, Arial, sans-serif" font-size="12" fill="#555" text-anchor="middle">G</text><rect x="804.0" y="164.0" width="110.0" height="22.0" fill="#f0f0f0" stroke="#d9d9d9"/><text x="859.0" y="179.0" font-family="Segoe UI, Arial, sans-serif" font-size="12" fill="#555" text-anchor="middle">H</text><rect x="914.0" y="164.0" width="38.0" height="22.0" fill="#f0f0f0" stroke="#d9d9d9"/><text x="933.0" y="179.0" font-family="Segoe UI, Arial, sans-serif" font-size="12" fill="#555" text-anchor="middle">I</text><rect x="8.0" y="186.0" width="36.0" height="24.0" fill="#f0f0f0" stroke="#d9d9d9"/><text x="26.0" y="202.0" font-family="Segoe UI, Arial, sans-serif" font-size="12" fill="#555" text-anchor="middle">1</text><rect x="8.0" y="210.0" width="36.0" height="24.0" fill="#f0f0f0" stroke="#d9d9d9"/><text x="26.0" y="226.0" font-family="Segoe UI, Arial, sans-serif" font-size="12" fill="#555" text-anchor="middle">32</text><rect x="8.0" y="234.0" width="36.0" height="24.0" fill="#f0f0f0" stroke="#d9d9d9"/><text x="26.0" y="250.0" font-family="Segoe UI, Arial, sans-serif" font-size="12" fill="#555" text-anchor="middle">33</text><rect x="8.0" y="258.0" width="36.0" height="24.0" fill="#f0f0f0" stroke="#d9d9d9"/><text x="26.0" y="274.0" font-family="Segoe UI, Arial, sans-serif" font-size="12" fill="#555" text-anchor="middle">34</text><rect x="8.0" y="282.0" width="36.0" height="24.0" fill="#f0f0f0" stroke="#d9d9d9"/><text x="26.0" y="298.0" font-family="Segoe UI, Arial, sans-serif" font-size="12" fill="#555" text-anchor="middle">35</text><rect x="8.0" y="306.0" width="36.0" height="24.0" fill="#f0f0f0" stroke="#d9d9d9"/><text x="26.0" y="322.0" font-family="Segoe UI, Arial, sans-serif" font-size="12" fill="#555" text-anchor="middle">36</text><rect x="8.0" y="330.0" width="36.0" height="24.0" fill="#f0f0f0" stroke="#d9d9d9"/><text x="26.0" y="346.0" font-family="Segoe UI, Arial, sans-serif" font-size="12" fill="#555" text-anchor="middle">37</text><rect x="8.0" y="354.0" width="36.0" height="24.0" fill="#f0f0f0" stroke="#d9d9d9"/><text x="26.0" y="370.0" font-family="Segoe UI, Arial, sans-serif" font-size="12" fill="#555" text-anchor="middle">38</text><rect x="44.0" y="186.0" width="90.0" height="24.0" fill="#ffffff" stroke="#d9d9d9"/><rect x="134.0" y="186.0" width="80.0" height="24.0" fill="#ffffff" stroke="#d9d9d9"/><rect x="214.0" y="186.0" width="140.0" height="24.0" fill="#ffffff" stroke="#d9d9d9"/><rect x="354.0" y="186.0" width="90.0" height="24.0" fill="#ffffff" stroke="#d9d9d9"/><rect x="444.0" y="186.0" width="170.0" height="24.0" fill="#ffffff" stroke="#d9d9d9"/><rect x="614.0" y="186.0" width="86.0" height="24.0" fill="#ffffff" stroke="#d9d9d9"/><rect x="700.0" y="186.0" width="104.0" height="24.0" fill="#ffffff" stroke="#d9d9d9"/><rect x="804.0" y="186.0" width="110.0" height="24.0" fill="#ffffff" stroke="#d9d9d9"/><rect x="914.0" y="186.0" width="38.0" height="24.0" fill="#ffffff" stroke="#d9d9d9"/><rect x="44.0" y="210.0" width="90.0" height="24.0" fill="#ffffff" stroke="#d9d9d9"/><rect x="134.0" y="210.0" width="80.0" height="24.0" fill="#ffffff" stroke="#d9d9d9"/><rect x="214.0" y="210.0" width="140.0" height="24.0" fill="#ffffff" stroke="#d9d9d9"/><rect x="354.0" y="210.0" width="90.0" height="24.0" fill="#ffffff" stroke="#d9d9d9"/><rect x="444.0" y="210.0" width="170.0" height="24.0" fill="#ffffff" stroke="#d9d9d9"/><rect x="614.0" y="210.0" width="86.0" height="24.0" fill="#ffffff" stroke="#d9d9d9"/><rect x="700.0" y="210.0" width="104.0" height="24.0" fill="#ffffff" stroke="#d9d9d9"/><rect x="804.0" y="210.0" width="110.0" height="24.0" fill="#ffffff" stroke="#d9d9d9"/><rect x="914.0" y="210.0" width="38.0" height="24.0" fill="#ffffff" stroke="#d9d9d9"/><rect x="44.0" y="234.0" width="90.0" height="24.0" fill="#ffffff" stroke="#d9d9d9"/><rect x="134.0" y="234.0" width="80.0" height="24.0" fill="#ffffff" stroke="#d9d9d9"/><rect x="214.0" y="234.0" width="140.0" height="24.0" fill="#ffffff" stroke="#d9d9d9"/><rect x="354.0" y="234.0" width="90.0" height="24.0" fill="#ffffff" stroke="#d9d9d9"/><rect x="444.0" y="234.0" width="170.0" height="24.0" fill="#ffffff" stroke="#d9d9d9"/><rect x="614.0" y="234.0" width="86.0" height="24.0" fill="#ffffff" stroke="#d9d9d9"/><rect x="700.0" y="234.0" width="104.0" height="24.0" fill="#ffffff" stroke="#d9d9d9"/><rect x="804.0" y="234.0" width="110.0" height="24.0" fill="#ffffff" stroke="#d9d9d9"/><rect x="914.0" y="234.0" width="38.0" height="24.0" fill="#ffffff" stroke="#d9d9d9"/><rect x="44.0" y="258.0" width="90.0" height="24.0" fill="#ffffff" stroke="#d9d9d9"/><rect x="134.0" y="258.0" width="80.0" height="24.0" fill="#ffffff" stroke="#d9d9d9"/><rect x="214.0" y="258.0" width="140.0" height="24.0" fill="#ffffff" stroke="#d9d9d9"/><rect x="354.0" y="258.0" width="90.0" height="24.0" fill="#ffffff" stroke="#d9d9d9"/><rect x="444.0" y="258.0" width="170.0" height="24.0" fill="#ffffff" stroke="#d9d9d9"/><rect x="614.0" y="258.0" width="86.0" height="24.0" fill="#ffffff" stroke="#d9d9d9"/><rect x="700.0" y="258.0" width="104.0" height="24.0" fill="#ffffff" stroke="#d9d9d9"/><rect x="804.0" y="258.0" width="110.0" height="24.0" fill="#ffffff" stroke="#d9d9d9"/><rect x="914.0" y="258.0" width="38.0" height="24.0" fill="#ffffff" stroke="#d9d9d9"/><rect x="44.0" y="282.0" width="90.0" height="24.0" fill="#ffffff" stroke="#d9d9d9"/><rect x="134.0" y="282.0" width="80.0" height="24.0" fill="#ffffff" stroke="#d9d9d9"/><rect x="214.0" y="282.0" width="140.0" height="24.0" fill="#ffffff" stroke="#d9d9d9"/><rect x="354.0" y="282.0" width="90.0" height="24.0" fill="#ffffff" stroke="#d9d9d9"/><rect x="444.0" y="282.0" width="170.0" height="24.0" fill="#ffffff" stroke="#d9d9d9"/><rect x="614.0" y="282.0" width="86.0" height="24.0" fill="#ffffff" stroke="#d9d9d9"/><rect x="700.0" y="282.0" width="104.0" height="24.0" fill="#ffffff" stroke="#d9d9d9"/><rect x="804.0" y="282.0" width="110.0" height="24.0" fill="#ffffff" stroke="#d9d9d9"/><rect x="914.0" y="282.0" width="38.0" height="24.0" fill="#ffffff" stroke="#d9d9d9"/><rect x="44.0" y="306.0" width="90.0" height="24.0" fill="#ffffff" stroke="#d9d9d9"/><rect x="134.0" y="306.0" width="80.0" height="24.0" fill="#ffffff" stroke="#d9d9d9"/><rect x="214.0" y="306.0" width="140.0" height="24.0" fill="#ffffff" stroke="#d9d9d9"/><rect x="354.0" y="306.0" width="90.0" height="24.0" fill="#ffffff" stroke="#d9d9d9"/><rect x="444.0" y="306.0" width="170.0" height="24.0" fill="#ffffff" stroke="#d9d9d9"/><rect x="614.0" y="306.0" width="86.0" height="24.0" fill="#ffffff" stroke="#d9d9d9"/><rect x="700.0" y="306.0" width="104.0" height="24.0" fill="#ffffff" stroke="#d9d9d9"/><rect x="804.0" y="306.0" width="110.0" height="24.0" fill="#ffffff" stroke="#d9d9d9"/><rect x="914.0" y="306.0" width="38.0" height="24.0" fill="#ffffff" stroke="#d9d9d9"/><rect x="44.0" y="330.0" width="90.0" height="24.0" fill="#ffffff" stroke="#d9d9d9"/><rect x="134.0" y="330.0" width="80.0" height="24.0" fill="#ffffff" stroke="#d9d9d9"/><rect x="214.0" y="330.0" width="140.0" height="24.0" fill="#ffffff" stroke="#d9d9d9"/><rect x="354.0" y="330.0" width="90.0" height="24.0" fill="#ffffff" stroke="#d9d9d9"/><rect x="444.0" y="330.0" width="170.0" height="24.0" fill="#ffffff" stroke="#d9d9d9"/><rect x="614.0" y="330.0" width="86.0" height="24.0" fill="#ffffff" stroke="#d9d9d9"/><rect x="700.0" y="330.0" width="104.0" height="24.0" fill="#ffffff" stroke="#d9d9d9"/><rect x="804.0" y="330.0" width="110.0" height="24.0" fill="#ffffff" stroke="#d9d9d9"/><rect x="914.0" y="330.0" width="38.0" height="24.0" fill="#ffffff" stroke="#d9d9d9"/><rect x="44.0" y="354.0" width="90.0" height="24.0" fill="#ffffff" stroke="#d9d9d9"/><rect x="134.0" y="354.0" width="80.0" height="24.0" fill="#ffffff" stroke="#d9d9d9"/><rect x="214.0" y="354.0" width="140.0" height="24.0" fill="#ffffff" stroke="#d9d9d9"/><rect x="354.0" y="354.0" width="90.0" height="24.0" fill="#ffffff" stroke="#d9d9d9"/><rect x="444.0" y="354.0" width="170.0" height="24.0" fill="#ffffff" stroke="#d9d9d9"/><rect x="614.0" y="354.0" width="86.0" height="24.0" fill="#ffffff" stroke="#d9d9d9"/><rect x="700.0" y="354.0" width="104.0" height="24.0" fill="#ffffff" stroke="#d9d9d9"/><rect x="804.0" y="354.0" width="110.0" height="24.0" fill="#ffffff" stroke="#d9d9d9"/><rect x="914.0" y="354.0" width="38.0" height="24.0" fill="#ffffff" stroke="#d9d9d9"/><rect x="44.0" y="186.0" width="90.0" height="24.0" fill="#1f3864" stroke="#ffffff"/><rect x="134.0" y="186.0" width="80.0" height="24.0" fill="#1f3864" stroke="#ffffff"/><rect x="214.0" y="186.0" width="140.0" height="24.0" fill="#1f3864" stroke="#ffffff"/><rect x="354.0" y="186.0" width="90.0" height="24.0" fill="#1f3864" stroke="#ffffff"/><rect x="444.0" y="186.0" width="170.0" height="24.0" fill="#1f3864" stroke="#ffffff"/><rect x="614.0" y="186.0" width="86.0" height="24.0" fill="#1f3864" stroke="#ffffff"/><rect x="700.0" y="186.0" width="104.0" height="24.0" fill="#1f3864" stroke="#ffffff"/><rect x="804.0" y="186.0" width="110.0" height="24.0" fill="#1f3864" stroke="#ffffff"/><rect x="44.0" y="354.0" width="870.0" height="24.0" fill="#217346" fill-opacity="0.12" stroke="#217346" stroke-width="2.5"/><text x="89.0" y="202.0" font-family="Segoe UI, Arial, sans-serif" font-size="12" font-weight="700" fill="#ffffff" text-anchor="middle">Data</text><text x="174.0" y="202.0" font-family="Segoe UI, Arial, sans-serif" font-size="12" font-weight="700" fill="#ffffff" text-anchor="middle">Nº Pedido</text><text x="284.0" y="202.0" font-family="Segoe UI, Arial, sans-serif" font-size="12" font-weight="700" fill="#ffffff" text-anchor="middle">Fornecedor</text><text x="399.0" y="202.0" font-family="Segoe UI, Arial, sans-serif" font-size="12" font-weight="700" fill="#ffffff" text-anchor="middle">Categoria</text><text x="529.0" y="202.0" font-family="Segoe UI, Arial, sans-serif" font-size="12" font-weight="700" fill="#ffffff" text-anchor="middle">Item</text><text x="657.0" y="202.0" font-family="Segoe UI, Arial, sans-serif" font-size="12" font-weight="700" fill="#ffffff" text-anchor="middle">Quantidade</text><text x="752.0" y="202.0" font-family="Segoe UI, Arial, sans-serif" font-size="12" font-weight="700" fill="#ffffff" text-anchor="middle">Valor Unitár…</text><text x="859.0" y="202.0" font-family="Segoe UI, Arial, sans-serif" font-size="12" font-weight="700" fill="#ffffff" text-anchor="middle">Valor Total</text><text x="129.0" y="226.0" font-family="Segoe UI, Arial, sans-serif" font-size="12.5" fill="#1f2937" text-anchor="end">02/06/2026</text><text x="139.0" y="226.0" font-family="Segoe UI, Arial, sans-serif" font-size="12.5" fill="#1f2937">P-031</text><text x="219.0" y="226.0" font-family="Segoe UI, Arial, sans-serif" font-size="12.5" fill="#1f2937">Beta Industrial</text><text x="359.0" y="226.0" font-family="Segoe UI, Arial, sans-serif" font-size="12.5" fill="#1f2937">Elétrico</text><text x="449.0" y="226.0" font-family="Segoe UI, Arial, sans-serif" font-size="12.5" fill="#1f2937">Cabo flexível 2,5 mm²</text><text x="695.0" y="226.0" font-family="Segoe UI, Arial, sans-serif" font-size="12.5" fill="#1f2937" text-anchor="end">180</text><text x="799.0" y="226.0" font-family="Segoe UI, Arial, sans-serif" font-size="12.5" fill="#1f2937" text-anchor="end">3,40</text><text x="909.0" y="226.0" font-family="Segoe UI, Arial, sans-serif" font-size="12.5" fill="#1f2937" text-anchor="end">R$ 612,00</text><text x="129.0" y="250.0" font-family="Segoe UI, Arial, sans-serif" font-size="12.5" fill="#1f2937" text-anchor="end">05/06/2026</text><text x="139.0" y="250.0" font-family="Segoe UI, Arial, sans-serif" font-size="12.5" fill="#1f2937">P-032</text><text x="219.0" y="250.0" font-family="Segoe UI, Arial, sans-serif" font-size="12.5" fill="#1f2937">Delta Ferramentas</text><text x="359.0" y="250.0" font-family="Segoe UI, Arial, sans-serif" font-size="12.5" fill="#1f2937">Ferramentas</text><text x="449.0" y="250.0" font-family="Segoe UI, Arial, sans-serif" font-size="12.5" fill="#1f2937">Trena 5 m</text><text x="695.0" y="250.0" font-family="Segoe UI, Arial, sans-serif" font-size="12.5" fill="#1f2937" text-anchor="end">10</text><text x="799.0" y="250.0" font-family="Segoe UI, Arial, sans-serif" font-size="12.5" fill="#1f2937" text-anchor="end">22,00</text><text x="909.0" y="250.0" font-family="Segoe UI, Arial, sans-serif" font-size="12.5" fill="#1f2937" text-anchor="end">R$ 220,00</text><text x="129.0" y="274.0" font-family="Segoe UI, Arial, sans-serif" font-size="12.5" fill="#1f2937" text-anchor="end">10/06/2026</text><text x="139.0" y="274.0" font-family="Segoe UI, Arial, sans-serif" font-size="12.5" fill="#1f2937">P-033</text><text x="219.0" y="274.0" font-family="Segoe UI, Arial, sans-serif" font-size="12.5" fill="#1f2937">Delta Ferramentas</text><text x="359.0" y="274.0" font-family="Segoe UI, Arial, sans-serif" font-size="12.5" fill="#1f2937">Ferramentas</text><text x="449.0" y="274.0" font-family="Segoe UI, Arial, sans-serif" font-size="12.5" fill="#1f2937">Disco de corte 7&quot;</text><text x="695.0" y="274.0" font-family="Segoe UI, Arial, sans-serif" font-size="12.5" fill="#1f2937" text-anchor="end">35</text><text x="799.0" y="274.0" font-family="Segoe UI, Arial, sans-serif" font-size="12.5" fill="#1f2937" text-anchor="end">9,80</text><text x="909.0" y="274.0" font-family="Segoe UI, Arial, sans-serif" font-size="12.5" fill="#1f2937" text-anchor="end">R$ 343,00</text><text x="129.0" y="298.0" font-family="Segoe UI, Arial, sans-serif" font-size="12.5" fill="#1f2937" text-anchor="end">16/06/2026</text><text x="139.0" y="298.0" font-family="Segoe UI, Arial, sans-serif" font-size="12.5" fill="#1f2937">P-034</text><text x="219.0" y="298.0" font-family="Segoe UI, Arial, sans-serif" font-size="12.5" fill="#1f2937">Alfa Suprimentos</text><text x="359.0" y="298.0" font-family="Segoe UI, Arial, sans-serif" font-size="12.5" fill="#1f2937">EPI</text><text x="449.0" y="298.0" font-family="Segoe UI, Arial, sans-serif" font-size="12.5" fill="#1f2937">Luva de vaqueta</text><text x="695.0" y="298.0" font-family="Segoe UI, Arial, sans-serif" font-size="12.5" fill="#1f2937" text-anchor="end">35</text><text x="799.0" y="298.0" font-family="Segoe UI, Arial, sans-serif" font-size="12.5" fill="#1f2937" text-anchor="end">18,90</text><text x="909.0" y="298.0" font-family="Segoe UI, Arial, sans-serif" font-size="12.5" fill="#1f2937" text-anchor="end">R$ 661,50</text><text x="129.0" y="322.0" font-family="Segoe UI, Arial, sans-serif" font-size="12.5" fill="#1f2937" text-anchor="end">19/06/2026</text><text x="139.0" y="322.0" font-family="Segoe UI, Arial, sans-serif" font-size="12.5" fill="#1f2937">P-035</text><text x="219.0" y="322.0" font-family="Segoe UI, Arial, sans-serif" font-size="12.5" fill="#1f2937">Beta Industrial</text><text x="359.0" y="322.0" font-family="Segoe UI, Arial, sans-serif" font-size="12.5" fill="#1f2937">Elétrico</text><text x="449.0" y="322.0" font-family="Segoe UI, Arial, sans-serif" font-size="12.5" fill="#1f2937">Fita isolante 19 mm</text><text x="695.0" y="322.0" font-family="Segoe UI, Arial, sans-serif" font-size="12.5" fill="#1f2937" text-anchor="end">20</text><text x="799.0" y="322.0" font-family="Segoe UI, Arial, sans-serif" font-size="12.5" fill="#1f2937" text-anchor="end">6,90</text><text x="909.0" y="322.0" font-family="Segoe UI, Arial, sans-serif" font-size="12.5" fill="#1f2937" text-anchor="end">R$ 138,00</text><text x="129.0" y="346.0" font-family="Segoe UI, Arial, sans-serif" font-size="12.5" fill="#1f2937" text-anchor="end">25/06/2026</text><text x="139.0" y="346.0" font-family="Segoe UI, Arial, sans-serif" font-size="12.5" fill="#1f2937">P-036</text><text x="219.0" y="346.0" font-family="Segoe UI, Arial, sans-serif" font-size="12.5" fill="#1f2937">Beta Industrial</text><text x="359.0" y="346.0" font-family="Segoe UI, Arial, sans-serif" font-size="12.5" fill="#1f2937">Elétrico</text><text x="449.0" y="346.0" font-family="Segoe UI, Arial, sans-serif" font-size="12.5" fill="#1f2937">Disjuntor 20 A</text><text x="695.0" y="346.0" font-family="Segoe UI, Arial, sans-serif" font-size="12.5" fill="#1f2937" text-anchor="end">15</text><text x="799.0" y="346.0" font-family="Segoe UI, Arial, sans-serif" font-size="12.5" fill="#1f2937" text-anchor="end">24,90</text><text x="909.0" y="346.0" font-family="Segoe UI, Arial, sans-serif" font-size="12.5" fill="#1f2937" text-anchor="end">R$ 373,50</text><text x="129.0" y="370.0" font-family="Segoe UI, Arial, sans-serif" font-size="12.5" fill="#1f2937" text-anchor="end">30/06/2026</text><text x="139.0" y="370.0" font-family="Segoe UI, Arial, sans-serif" font-size="12.5" fill="#1f2937">P-037</text><text x="219.0" y="370.0" font-family="Segoe UI, Arial, sans-serif" font-size="12.5" fill="#1f2937">Cometa EPI</text><text x="359.0" y="370.0" font-family="Segoe UI, Arial, sans-serif" font-size="12.5" fill="#1f2937">EPI</text><text x="449.0" y="370.0" font-family="Segoe UI, Arial, sans-serif" font-size="12.5" fill="#1f2937">Máscara PFF2</text><text x="695.0" y="370.0" font-family="Segoe UI, Arial, sans-serif" font-size="12.5" fill="#1f2937" text-anchor="end">100</text><text x="799.0" y="370.0" font-family="Segoe UI, Arial, sans-serif" font-size="12.5" fill="#1f2937" text-anchor="end">3,20</text><text x="909.0" y="370.0" font-family="Segoe UI, Arial, sans-serif" font-size="12.5" fill="#1f2937" text-anchor="end">R$ 320,00</text><rect x="0.0" y="382.0" width="960.0" height="30.0" fill="#f3f3f3"/><rect x="48.0" y="384.0" width="114.0" height="24.0" fill="#ffffff" stroke="#217346"/><text x="105.0" y="401.0" font-family="Segoe UI, Arial, sans-serif" font-size="12.5" text-anchor="middle" font-weight="700" fill="#217346">Base_Compras</text><rect x="166.0" y="384.0" width="121.5" height="24.0" fill="#e9e9e9" stroke="#c8c8c8"/><text x="226.8" y="401.0" font-family="Segoe UI, Arial, sans-serif" font-size="12.5" text-anchor="middle" fill="#444">TD_Fornecedor</text><rect x="291.5" y="384.0" width="69.0" height="24.0" fill="#e9e9e9" stroke="#c8c8c8"/><text x="326.0" y="401.0" font-family="Segoe UI, Arial, sans-serif" font-size="12.5" text-anchor="middle" fill="#444">TD_Mes</text><rect x="364.5" y="384.0" width="84.0" height="24.0" fill="#e9e9e9" stroke="#c8c8c8"/><text x="406.5" y="401.0" font-family="Segoe UI, Arial, sans-serif" font-size="12.5" text-anchor="middle" fill="#444">TD_Itens</text><rect x="452.5" y="384.0" width="91.5" height="24.0" fill="#e9e9e9" stroke="#c8c8c8"/><text x="498.2" y="401.0" font-family="Segoe UI, Arial, sans-serif" font-size="12.5" text-anchor="middle" fill="#444">TD_Mensal</text><rect x="552.0" y="386.0" width="22.0" height="20.0" rx="11" fill="#ffffff" stroke="#999"/><text x="563.0" y="401.0" font-family="Segoe UI, Arial, sans-serif" font-size="15" text-anchor="middle" fill="#444">+</text><rect x="42.0" y="352.0" width="874.0" height="28.0" rx="4" fill="none" stroke="#f47b20" stroke-width="3"/><circle cx="26.0" cy="366.0" r="14" fill="#f47b20" stroke="#ffffff" stroke-width="2"/><text x="26.0" y="371.0" font-family="Segoe UI, Arial, sans-serif" font-size="14" font-weight="800" fill="#ffffff" text-anchor="middle">1</text><rect x="472.0" y="26.0" width="57.0" height="30.0" rx="4" fill="none" stroke="#f47b20" stroke-width="3"/><circle cx="500.5" cy="16.0" r="14" fill="#f47b20" stroke="#ffffff" stroke-width="2"/><text x="500.5" y="21.0" font-family="Segoe UI, Arial, sans-serif" font-size="14" font-weight="800" fill="#ffffff" text-anchor="middle">2</text><rect x="522.0" y="58.0" width="84.0" height="62.0" rx="4" fill="none" stroke="#f47b20" stroke-width="3"/><circle cx="564.0" cy="136.0" r="14" fill="#f47b20" stroke="#ffffff" stroke-width="2"/><text x="564.0" y="141.0" font-family="Segoe UI, Arial, sans-serif" font-size="14" font-weight="800" fill="#ffffff" text-anchor="middle">3</text></svg>
